{
.appVersion = "3133";
date = "2016-11-08 10:02:54 +0000";
familyName = "Mell Sans ";
featurePrefixes = (
{
automatic = 1;
code = "languagesystem DFLT dflt;\012languagesystem cyrl dflt;\012languagesystem latn dflt;\012languagesystem latn CAT;\012languagesystem latn ROM;\012languagesystem latn MOL;\012languagesystem latn TRK;\012";
name = Languagesystems;
}
);
features = (
{
automatic = 1;
code = "feature locl;\012feature frac;\012";
name = aalt;
},
{
automatic = 1;
code = "script latn;\012language CAT;\012sub  l' periodcentered' l by ldot;\012sub  L' periodcentered' L by Ldot;\012language ROM;\012sub Scedilla by Scommaaccent;\012sub scedilla by scommaaccent;\012sub Tcedilla by Tcommaaccent;\012sub tcedilla by tcommaaccent;\012language MOL;\012sub Scedilla by Scommaaccent;\012sub scedilla by scommaaccent;\012sub Tcedilla by Tcommaaccent;\012sub tcedilla by tcommaaccent;\012language KAZ;\012sub i by idotaccent;\012language TAT;\012sub i by idotaccent;\012language TRK;\012sub i by idotaccent;\012language CRT;\012sub i by idotaccent;\012language AZE;\012sub i by idotaccent;\012";
name = locl;
},
{
automatic = 1;
code = "lookup FRAC {\012	sub slash by fraction;\012} FRAC;\012lookup UP {\012	sub [zero one two three four five six seven eight nine] by [zero.numr one.numr two.numr three.numr four.numr five.numr six.numr seven.numr eight.numr nine.numr];\012} UP;\012lookup DOWN {\012	sub fraction [zero.numr one.numr two.numr three.numr four.numr five.numr six.numr seven.numr eight.numr nine.numr]' by [zero.dnom one.dnom two.dnom three.dnom four.dnom five.dnom six.dnom seven.dnom eight.dnom nine.dnom];\012	sub [zero.dnom one.dnom two.dnom three.dnom four.dnom five.dnom six.dnom seven.dnom eight.dnom nine.dnom] [zero.numr one.numr two.numr three.numr four.numr five.numr six.numr seven.numr eight.numr nine.numr]' by [zero.dnom one.dnom two.dnom three.dnom four.dnom five.dnom six.dnom seven.dnom eight.dnom nine.dnom];\012} DOWN;\012";
name = frac;
}
);
fontMaster = (
{

glyphs = (
{
glyphname = B;
lastChange = "2019-01-09 17:58:59 +0000";
layers = (
{
background = {
paths = (
{
closed = 1;
nodes = (
"300 356 OFFCURVE",
"243 353 OFFCURVE",
"323 362 CURVE",
"377 379 OFFCURVE",
"413 421 OFFCURVE",
"413 508 CURVE SMOOTH",
"413 638 OFFCURVE",
"359 703 OFFCURVE",
"221 701 CURVE SMOOTH",
"151 700 LINE",
"151 700 OFFCURVE",
"148 356 OFFCURVE",
"148 356 CURVE SMOOTH"
);
},
{
closed = 1;
nodes = (
"202 619 LINE SMOOTH",
"290 619 OFFCURVE",
"326 586 OFFCURVE",
"326 513 CURVE SMOOTH",
"326 439 OFFCURVE",
"311 396 OFFCURVE",
"226 396 CURVE SMOOTH",
"131 396 LINE",
"131 619 LINE"
);
}
);
};
components = (
{
name = _I_small;
transform = "{1, 0, 0, 1, 40, 27}";
},
{
name = _I_small;
transform = "{1, 0, 0, 1, 40, 165}";
},
{
name = _I_small;
transform = "{1, 0, 0, 1, 40, 328}";
},
{
name = _I_small;
transform = "{1, 0, 0, 1, 40, 474}";
},
{
name = _curve_B;
transform = "{1, 0, 0, -1, 88, 708}";
},
{
name = _curve_B;
transform = "{1, 0, 0, 1, 48, -4}";
}
);
layerId = "7EBE3D46-E53E-419E-A3EC-596DA2EA1E0D";
name = Regular;
paths = (
{
closed = 1;
nodes = (
"70 0 LINE",
"70 13 LINE",
"133 22 LINE",
"113 -4 LINE"
);
}
);
width = 600;
}
);
unicode = 0042;
},
{
glyphname = G;
lastChange = "2020-03-07 09:04:14 +0000";
layers = (
{
components = (
{
name = _C_curve;
transform = "{1, 0, 0, 1, 49, 24}";
},
{
name = "_dash-small";
transform = "{1, 0, 0, 1, 199, 50}";
},
{
name = _I_small;
transform = "{1, 0, 0, 1, 398, 107}";
},
{
name = "_dash-small";
transform = "{1, 0, 0, 1, 149, 50}";
},
{
name = _C_lowe;
transform = "{1, 0, 0, 1, 20, 18}";
}
);
layerId = "7EBE3D46-E53E-419E-A3EC-596DA2EA1E0D";
name = Regular;
paths = (
{
closed = 1;
nodes = (
"444 -7 OFFCURVE",
"499 46 OFFCURVE",
"524 71 CURVE SMOOTH",
"541 88 LINE",
"469 146 LINE",
"311 77 LINE",
"309 -7 LINE"
);
}
);
width = 611;
}
);
leftKerningGroup = O;
rightKerningGroup = O;
unicode = 0047;
},
{
glyphname = K;
lastChange = "2020-03-07 09:07:51 +0000";
layers = (
{
components = (
{
name = _I;
transform = "{1, 0, 0, 1, 30, 0}";
}
);
layerId = "7EBE3D46-E53E-419E-A3EC-596DA2EA1E0D";
name = Regular;
paths = (
{
closed = 1;
nodes = (
"545 700 LINE",
"392 700 LINE",
"221 456 LINE",
"187 407 OFFCURVE",
"165 425 OFFCURVE",
"149 422 CURVE SMOOTH",
"138 420 OFFCURVE",
"146 288 OFFCURVE",
"148 288 CURVE SMOOTH",
"175 288 OFFCURVE",
"193 301 OFFCURVE",
"230 245 CURVE SMOOTH",
"392 2 LINE",
"545 2 LINE",
"299 353 LINE"
);
}
);
width = 555;
}
);
unicode = 004B;
},
{
glyphname = P;
lastChange = "2020-03-07 07:49:52 +0000";
layers = (
{
components = (
{
name = _I_small;
transform = "{1, 0, 0, 1, 40, 505}";
},
{
name = _I_small;
transform = "{1, 0, 0, 1, 40, 19}";
},
{
name = _I_small;
transform = "{1, 0, 0, 1, 40, 164}";
},
{
name = _I_small;
transform = "{1, 0, 0, 1, 40, 327}";
},
{
name = _I_small;
transform = "{1, 0, 0, 1, 40, 473}";
}
);
layerId = "7EBE3D46-E53E-419E-A3EC-596DA2EA1E0D";
name = Regular;
paths = (
{
closed = 1;
nodes = (
"178 699 OFFCURVE",
"102 696 OFFCURVE",
"72 693 CURVE",
"72 558 LINE",
"94 576 OFFCURVE",
"189 578 OFFCURVE",
"277 576 CURVE",
"357 573 OFFCURVE",
"388 518 OFFCURVE",
"388 474 CURVE",
"388 410 OFFCURVE",
"351 367 OFFCURVE",
"251 367 CURVE",
"126 367 LINE",
"74 256 LINE",
"267 256 LINE",
"438 256 OFFCURVE",
"512 373 OFFCURVE",
"512 480 CURVE",
"512 616 OFFCURVE",
"422 696 OFFCURVE",
"276 698 CURVE"
);
}
);
width = 530;
}
);
rightKerningGroup = V;
unicode = 0050;
},
{
glyphname = Q;
lastChange = "2020-03-07 07:48:49 +0000";
layers = (
{
components = (
{
name = O;
}
);
layerId = "7EBE3D46-E53E-419E-A3EC-596DA2EA1E0D";
name = Regular;
paths = (
{
closed = 1;
nodes = (
"547 -92 LINE",
"638 -10 LINE",
"419 240 LINE",
"349 170 LINE"
);
}
);
width = 676;
}
);
unicode = 0051;
},
{
glyphname = R;
lastChange = "2019-01-09 13:42:55 +0000";
layers = (
{
components = (
{
name = _I_small;
transform = "{1, 0, 0, 1, 40, 503}";
},
{
name = _I_small;
transform = "{1, 0, 0, 1, 40, 19}";
},
{
name = _I_small;
transform = "{1, 0, 0, 1, 40, 164}";
},
{
name = _I_small;
transform = "{1, 0, 0, 1, 40, 327}";
},
{
name = _I_small;
transform = "{1, 0, 0, 1, 40, 473}";
},
{
name = _curve_B;
transform = "{1, 0, 0, 1, 48, -18}";
}
);
layerId = "7EBE3D46-E53E-419E-A3EC-596DA2EA1E0D";
name = Regular;
paths = (
{
closed = 1;
nodes = (
"176 309 LINE",
"407 -1 LINE",
"537 -1 LINE",
"293 318 LINE"
);
}
);
width = 557;
}
);
unicode = 0052;
},
{
glyphname = S;
lastChange = "2020-03-07 09:02:51 +0000";
layers = (
{
layerId = "7EBE3D46-E53E-419E-A3EC-596DA2EA1E0D";
name = Regular;
paths = (
{
closed = 1;
nodes = (
"439 360 OFFCURVE",
"309 403 CURVE SMOOTH",
"200 439 OFFCURVE",
"162 472 OFFCURVE",
"162 512 CURVE SMOOTH",
"162 561 OFFCURVE",
"199 581 OFFCURVE",
"276 581 CURVE SMOOTH",
"339 581 OFFCURVE",
"396 575 OFFCURVE",
"446 562 CURVE",
"470 657 LINE",
"424 690 OFFCURVE",
"353 706 OFFCURVE",
"262 706 CURVE",
"123 706 OFFCURVE",
"38 637 OFFCURVE",
"38 535 CURVE SMOOTH",
"38 409 OFFCURVE",
"117 351 OFFCURVE",
"257 305 CURVE",
"337 279 OFFCURVE",
"382 246 OFFCURVE",
"382 192 CURVE SMOOTH",
"382 140 OFFCURVE",
"333 113 OFFCURVE",
"278 113 CURVE SMOOTH",
"208 113 OFFCURVE",
"132 116 OFFCURVE",
"79 134 CURVE",
"54 52 LINE",
"97 11 OFFCURVE",
"171 -10 OFFCURVE",
"278 -10 CURVE SMOOTH",
"414 -10 OFFCURVE",
"510 63 OFFCURVE",
"510 183 CURVE SMOOTH",
"510 284 OFFCURVE"
);
}
);
width = 540;
}
);
unicode = 0053;
},
{
glyphname = Y;
lastChange = "2019-01-08 16:15:28 +0000";
layers = (
{
layerId = "7EBE3D46-E53E-419E-A3EC-596DA2EA1E0D";
name = Regular;
paths = (
{
closed = 1;
nodes = (
"631 700 LINE",
"488 700 LINE",
"312 408 LINE",
"151 700 LINE",
"10 700 LINE",
"254 284 LINE",
"254 0 LINE",
"367 0 LINE",
"367 284 LINE"
);
}
);
width = 641;
}
);
leftKerningGroup = T;
rightKerningGroup = T;
unicode = 0059;
},
{
glyphname = a;
lastChange = "2020-02-20 01:28:52 +0000";
layers = (
{
hints = (
{
horizontal = 1;
place = "{553.816, 0}";
type = Stem;
}
);
layerId = "7EBE3D46-E53E-419E-A3EC-596DA2EA1E0D";
name = Regular;
paths = (
{
closed = 1;
nodes = (
"158 510 OFFCURVE",
"112 504 OFFCURVE",
"62 463 CURVE",
"89 376 LINE",
"128 392 OFFCURVE",
"168 394 OFFCURVE",
"216 394 CURVE SMOOTH",
"283 394 OFFCURVE",
"307 364 OFFCURVE",
"313 309 CURVE",
"232 309 OFFCURVE",
"213 316 OFFCURVE",
"156 303 CURVE",
"92 288 OFFCURVE",
"42 248 OFFCURVE",
"40 155 CURVE SMOOTH",
"38 50 OFFCURVE",
"103 -5 OFFCURVE",
"179 -5 CURVE SMOOTH",
"233 -5 OFFCURVE",
"277 10 OFFCURVE",
"318 50 CURVE",
"323 0 LINE",
"428 0 LINE",
"428 274 LINE SMOOTH",
"428 431 OFFCURVE",
"349 510 OFFCURVE",
"242 510 CURVE SMOOTH"
);
},
{
closed = 1;
nodes = (
"174 110 OFFCURVE",
"148 128 OFFCURVE",
"147 152 CURVE SMOOTH",
"146 185 OFFCURVE",
"171 207 OFFCURVE",
"205 215 CURVE",
"234 222 OFFCURVE",
"259 222 OFFCURVE",
"315 222 CURVE",
"315 155 LINE",
"296 130 OFFCURVE",
"257 110 OFFCURVE",
"207 110 CURVE SMOOTH"
);
}
);
width = 488;
}
);
leftKerningGroup = e;
rightKerningGroup = e;
unicode = 0061;
},
{
glyphname = c;
lastChange = "2020-02-15 17:10:19 +0000";
layers = (
{
components = (
{
name = _curve_cursive;
transform = "{1, 0, 0, 1, -10, -2}";
}
);
layerId = "7EBE3D46-E53E-419E-A3EC-596DA2EA1E0D";
name = Regular;
paths = (
{
closed = 1;
nodes = (
"366 501 OFFCURVE",
"305 512 OFFCURVE",
"251 511 CURVE",
"139 515 OFFCURVE",
"40 418 OFFCURVE",
"40 267 CURVE SMOOTH",
"40 228 LINE SMOOTH",
"40 144 OFFCURVE",
"154 130 OFFCURVE",
"154 238 CURVE SMOOTH",
"154 258 LINE SMOOTH",
"154 339 OFFCURVE",
"210 380 OFFCURVE",
"263 380 CURVE SMOOTH",
"328 381 OFFCURVE",
"346 377 OFFCURVE",
"388 368 CURVE",
"403 468 LINE"
);
}
);
width = 470;
}
);
leftKerningGroup = e;
rightKerningGroup = c;
unicode = 0063;
},
{
glyphname = eth;
lastChange = "2017-02-21 06:29:50 +0000";
layers = (
{
components = (
{
name = six;
transform = "{-1, 0, 0, 1, 558, 0}";
}
);
layerId = "7EBE3D46-E53E-419E-A3EC-596DA2EA1E0D";
name = Regular;
paths = (
{
closed = 1;
nodes = (
"482.282 739.118 LINE",
"348.728 764.242 LINE",
"111.761 499.532 LINE",
"256.395 479.809 LINE"
);
}
);
width = 558;
}
);
unicode = 00F0;
},
{
glyphname = e;
lastChange = "2020-02-20 00:47:58 +0000";
layers = (
{
components = (
{
name = _o_curve;
transform = "{1, 0, 0, 1, 6, 0}";
},
{
name = _curve_cursive;
transform = "{1, 0, 0, 1, -9, -3}";
},
{
name = _curve_cursive;
transform = "{1, 0, 0, 1, -9, -3}";
}
);
layerId = "7EBE3D46-E53E-419E-A3EC-596DA2EA1E0D";
name = Regular;
paths = (
{
closed = 1;
nodes = (
"195 508 OFFCURVE",
"209 386 OFFCURVE",
"259 386 CURVE",
"301 386 OFFCURVE",
"346 344 OFFCURVE",
"346 288 CURVE",
"108 287 LINE",
"117 211 LINE",
"443 211 LINE",
"448 241 OFFCURVE",
"449 271 OFFCURVE",
"447 301 CURVE SMOOTH",
"440 410 OFFCURVE",
"366 508 OFFCURVE",
"263 508 CURVE"
);
}
);
width = 486;
}
);
leftKerningGroup = e;
rightKerningGroup = e;
unicode = 0065;
},
{
glyphname = g;
lastChange = "2020-01-18 15:51:44 +0000";
layers = (
{
layerId = "7EBE3D46-E53E-419E-A3EC-596DA2EA1E0D";
name = Regular;
paths = (
{
closed = 1;
nodes = (
"480 389 LINE",
"508 500 LINE",
"266 500 LINE",
"220 500 OFFCURVE",
"260 448 OFFCURVE",
"282 399 CURVE"
);
},
{
closed = 1;
nodes = (
"401 -211 OFFCURVE",
"492 -142 OFFCURVE",
"492 -50 CURVE",
"492 31 OFFCURVE",
"426 100 OFFCURVE",
"287 100 CURVE",
"181 100 OFFCURVE",
"171 142 OFFCURVE",
"190 167 CURVE",
"195 188 LINE",
"129 213 LINE",
"76 172 OFFCURVE",
"62 70 OFFCURVE",
"141 36 CURVE",
"141 68 LINE",
"106 60 OFFCURVE",
"40 21 OFFCURVE",
"40 -57 CURVE",
"41 -135 OFFCURVE",
"61 -211 OFFCURVE",
"244 -211 CURVE",
"289 -211 LINE"
);
},
{
closed = 1;
nodes = (
"265 -101 LINE",
"183 -101 OFFCURVE",
"154 -90 OFFCURVE",
"153 -50 CURVE",
"154 -7 OFFCURVE",
"187 0 OFFCURVE",
"265 0 CURVE",
"268 0 LINE",
"344 0 OFFCURVE",
"378 -9 OFFCURVE",
"379 -49 CURVE",
"378 -93 OFFCURVE",
"350 -101 OFFCURVE",
"268 -101 CURVE"
);
},
{
closed = 1;
nodes = (
"474 413 OFFCURVE",
"350 438 OFFCURVE",
"277 440 CURVE",
"278 500 LINE",
"258 500 LINE",
"117 500 OFFCURVE",
"54 426 OFFCURVE",
"54 320 CURVE",
"54 325 LINE",
"58 221 OFFCURVE",
"127 159 OFFCURVE",
"258 159 CURVE",
"262 159 LINE",
"264 159 OFFCURVE",
"265 159 OFFCURVE",
"267 159 CURVE",
"271 159 LINE",
"402 159 OFFCURVE",
"474 213 OFFCURVE",
"474 321 CURVE"
);
},
{
closed = 1;
nodes = (
"265 255 LINE",
"265 255 OFFCURVE",
"265 255 OFFCURVE",
"265 255 CURVE",
"259 255 LINE",
"194 255 OFFCURVE",
"177 285 OFFCURVE",
"177 321 CURVE",
"177 357 OFFCURVE",
"194 389 OFFCURVE",
"259 389 CURVE",
"265 389 LINE",
"265 389 OFFCURVE",
"265 389 OFFCURVE",
"265 389 CURVE",
"270 389 LINE",
"335 389 OFFCURVE",
"351 357 OFFCURVE",
"351 321 CURVE",
"351 285 OFFCURVE",
"335 255 OFFCURVE",
"270 255 CURVE"
);
}
);
width = 538;
}
);
leftKerningGroup = e;
unicode = 0067;
},
{
glyphname = j;
lastChange = "2020-02-21 18:38:00 +0000";
layers = (
{
components = (
{
name = "_i-dotless";
transform = "{1, 0, 0, 1, 97, 0}";
},
{
name = _dot;
transform = "{1, 0, 0, 1, 58, 8}";
},
{
name = _EF_horizontal;
transform = "{1, 0, 0, 1, -84, 87}";
}
);
layerId = "7EBE3D46-E53E-419E-A3EC-596DA2EA1E0D";
name = Regular;
paths = (
{
closed = 1;
nodes = (
"-21 -214 OFFCURVE",
"32 -246 OFFCURVE",
"86 -246 CURVE SMOOTH",
"183 -246 OFFCURVE",
"267 -181 OFFCURVE",
"267 -67 CURVE SMOOTH",
"267 132 LINE",
"154 132 LINE",
"154 -22 LINE SMOOTH",
"154 -74 OFFCURVE",
"119 -105 OFFCURVE",
"83 -105 CURVE",
"26 -105 OFFCURVE",
"-3 -97 OFFCURVE",
"-43 -83 CURVE",
"-58 -173 LINE"
);
}
);
width = 347;
}
);
leftKerningGroup = c;
rightKerningGroup = n;
unicode = 006A;
},
{
glyphname = k;
lastChange = "2020-02-20 00:51:19 +0000";
layers = (
{
components = (
{
name = _I_dbh;
transform = "{1, 0, 0, 1, 30, 0}";
}
);
layerId = "7EBE3D46-E53E-419E-A3EC-596DA2EA1E0D";
name = Regular;
paths = (
{
closed = 1;
nodes = (
"458 500 LINE",
"325 500 LINE",
"213 327 LINE",
"188 295 OFFCURVE",
"153 304 OFFCURVE",
"153 330 CURVE",
"152 169 LINE",
"153 201 OFFCURVE",
"191 206 OFFCURVE",
"210 174 CURVE",
"325 0 LINE",
"458 0 LINE",
"280 251 LINE"
);
},
{
closed = 1;
nodes = (
"172 169 LINE"
);
}
);
width = 488;
}
);
leftKerningGroup = h;
rightKerningGroup = v;
unicode = 006B;
},
{
glyphname = n;
lastChange = "2020-03-02 17:29:20 +0000";
layers = (
{
components = (
{
name = _hmn;
transform = "{1, 0, 0, 1, 24, 0}";
},
{
name = _I_small;
transform = "{1, 0, 0, 1, 30, 203}";
},
{
name = _I_small;
transform = "{1, 0, 0, 1, 30, 20}";
}
);
layerId = "7EBE3D46-E53E-419E-A3EC-596DA2EA1E0D";
name = Regular;
paths = (
{
closed = 1;
nodes = (
"163 500 LINE",
"60 500 LINE",
"60 380 LINE",
"164 388 LINE",
"171 384 LINE"
);
}
);
width = 538;
}
);
leftKerningGroup = n;
rightKerningGroup = n;
unicode = 006E;
},
{
glyphname = r;
lastChange = "2020-02-21 18:35:51 +0000";
layers = (
{
components = (
{
name = "_i-dotless";
transform = "{1, 0, 0, 1, 3, 0}";
}
);
layerId = "7EBE3D46-E53E-419E-A3EC-596DA2EA1E0D";
name = Regular;
paths = (
{
closed = 1;
nodes = (
"402 486 LINE",
"377 498 OFFCURVE",
"345 503 OFFCURVE",
"317 503 CURVE",
"236 503 OFFCURVE",
"174 441 OFFCURVE",
"159 356 CURVE",
"109 264 LINE",
"174 161 LINE",
"174 329 OFFCURVE",
"251 416 OFFCURVE",
"394 374 CURVE"
);
}
);
width = 432;
}
);
leftKerningGroup = n;
rightKerningGroup = f;
unicode = 0072;
},
{
glyphname = s;
lastChange = "2020-02-26 06:41:07 +0000";
layers = (
{
layerId = "7EBE3D46-E53E-419E-A3EC-596DA2EA1E0D";
name = Regular;
paths = (
{
closed = 1;
nodes = (
"259 298 CURVE SMOOTH",
"195 315 OFFCURVE",
"162 331 OFFCURVE",
"162 355 CURVE SMOOTH",
"162 383 OFFCURVE",
"194 388 OFFCURVE",
"228 388 CURVE",
"257 389 OFFCURVE",
"323 387 OFFCURVE",
"351 377 CURVE",
"378 467 LINE",
"326 504 OFFCURVE",
"279 512 OFFCURVE",
"218 512 CURVE SMOOTH",
"120 512 OFFCURVE",
"54 449 OFFCURVE",
"54 366 CURVE SMOOTH",
"54 288 OFFCURVE",
"86 241 OFFCURVE",
"197 206 CURVE SMOOTH",
"259 187 OFFCURVE",
"290 179 OFFCURVE",
"290 150 CURVE SMOOTH",
"290 122 OFFCURVE",
"270 109 OFFCURVE",
"222 109 CURVE SMOOTH",
"173 109 OFFCURVE",
"124 109 OFFCURVE",
"78 130 CURVE",
"52 52 LINE",
"99 9 OFFCURVE",
"132 -5 OFFCURVE",
"221 -5 CURVE SMOOTH",
"337 -5 OFFCURVE",
"404 57 OFFCURVE",
"404 142 CURVE SMOOTH",
"404 230 OFFCURVE",
"356 272 OFFCURVE"
);
}
);
width = 434;
}
);
leftKerningGroup = e;
rightKerningGroup = e;
unicode = 0073;
},
{
glyphname = germandbls;
lastChange = "2017-02-21 06:29:50 +0000";
layers = (
{
layerId = "7EBE3D46-E53E-419E-A3EC-596DA2EA1E0D";
name = Regular;
paths = (
{
closed = 1;
nodes = (
"537 281.539 OFFCURVE",
"359 320.346 OFFCURVE",
"359 374 CURVE",
"359 424.157 OFFCURVE",
"491 434.151 OFFCURVE",
"491 571 CURVE",
"491 670.439 OFFCURVE",
"426.134 733 OFFCURVE",
"293 733 CURVE",
"162.391 733 OFFCURVE",
"60 659.234 OFFCURVE",
"60 504 CURVE",
"60 -20 LINE",
"178 -20 LINE",
"178 485 LINE",
"178 522.754 OFFCURVE",
"179.355 539.01 OFFCURVE",
"184.575 547.71 CURVE",
"184.742 548.287 LINE",
"187.033 552.412 OFFCURVE",
"193.454 561.241 OFFCURVE",
"206.071 573.858 CURVE",
"220.438 589.071 OFFCURVE",
"251.197 600 OFFCURVE",
"285 600 CURVE",
"346.708 600 OFFCURVE",
"373.549 585.782 OFFCURVE",
"373.003 564.513 CURVE",
"373 564 LINE",
"373 505.988 OFFCURVE",
"242 500.894 OFFCURVE",
"242 370 CURVE",
"242 292.69 OFFCURVE",
"293.65 249.256 OFFCURVE",
"334.118 219.825 CURVE",
"369.389 194.726 OFFCURVE",
"394.652 179.917 OFFCURVE",
"404.753 155.385 CURVE",
"404.586 156.255 LINE",
"421.656 108.602 OFFCURVE",
"396.908 102.083 OFFCURVE",
"325.566 98.981 CURVE",
"300.004 99 OFFCURVE",
"267.241 102.971 OFFCURVE",
"255.008 108.323 CURVE",
"241 90 LINE",
"241 -18.27 LINE",
"256.927 -21.189 OFFCURVE",
"299.159 -28 OFFCURVE",
"340 -28 CURVE",
"483.546 -28 OFFCURVE",
"537 57.622 OFFCURVE",
"537 139 CURVE"
);
}
);
width = 597;
}
);
leftKerningGroup = h;
rightKerningGroup = c;
unicode = 00DF;
},
{
glyphname = t;
lastChange = "2020-02-08 19:27:35 +0000";
layers = (
{
components = (
{
name = _curve_lower;
transform = "{1, 0, 0, 1, 53, 1}";
}
);
hints = (
{
horizontal = 1;
place = "{420, 80}";
type = Stem;
}
);
layerId = "7EBE3D46-E53E-419E-A3EC-596DA2EA1E0D";
name = Regular;
paths = (
{
closed = 1;
nodes = (
"27 431 LINE",
"45 389 LINE",
"146 389 LINE",
"146 202 LINE",
"146 42 OFFCURVE",
"259 100 OFFCURVE",
"259 202 CURVE",
"259 389 LINE",
"416 389 LINE",
"416 500 LINE",
"259 500 LINE",
"259 610 LINE",
"215 626 LINE"
);
},
{
closed = 1;
nodes = (
"248 585 OFFCURVE",
"259 596 OFFCURVE",
"259 610 CURVE SMOOTH",
"259 623 OFFCURVE",
"248 635 OFFCURVE",
"234 635 CURVE SMOOTH",
"220 635 OFFCURVE",
"209 623 OFFCURVE",
"209 610 CURVE SMOOTH",
"209 596 OFFCURVE",
"220 585 OFFCURVE",
"234 585 CURVE SMOOTH"
);
},
{
closed = 1;
nodes = (
"59 389 OFFCURVE",
"70 400 OFFCURVE",
"70 414 CURVE SMOOTH",
"70 427 OFFCURVE",
"59 439 OFFCURVE",
"45 439 CURVE SMOOTH",
"31 439 OFFCURVE",
"20 427 OFFCURVE",
"20 414 CURVE SMOOTH",
"20 400 OFFCURVE",
"31 389 OFFCURVE",
"45 389 CURVE SMOOTH"
);
}
);
width = 506;
}
);
leftKerningGroup = c;
rightKerningGroup = c;
unicode = 0074;
},
{
glyphname = v;
lastChange = "2020-02-20 00:46:52 +0000";
layers = (
{
components = (
{
name = _y;
transform = "{1, 0, 0, 1, -70, -20}";
},
{
name = _y;
transform = "{-1, 0, 0, 1, 574, -20}";
}
);
layerId = "7EBE3D46-E53E-419E-A3EC-596DA2EA1E0D";
name = Regular;
paths = (
{
closed = 1;
nodes = (
"266 -8 OFFCURVE",
"277 3 OFFCURVE",
"277 17 CURVE SMOOTH",
"277 30 OFFCURVE",
"266 42 OFFCURVE",
"252 42 CURVE SMOOTH",
"238 42 OFFCURVE",
"227 30 OFFCURVE",
"227 17 CURVE SMOOTH",
"227 3 OFFCURVE",
"238 -8 OFFCURVE",
"252 -8 CURVE SMOOTH"
);
}
);
width = 504;
}
);
leftKerningGroup = v;
rightKerningGroup = v;
unicode = 0076;
},
{
glyphname = w;
lastChange = "2020-01-20 20:11:12 +0000";
layers = (
{
components = (
{
name = _w_small_slash;
transform = "{-1, 0, 0, 1, 692, -2}";
},
{
name = _w_small_slash;
transform = "{1, 0, 0, 1, -10, -2}";
},
{
name = _w_small_slash_2;
transform = "{1, 0, 0, 1, 68, -2}";
},
{
name = _w_small_slash_2;
transform = "{-1, 0, 0, 1, 615, -2}";
}
);
layerId = "7EBE3D46-E53E-419E-A3EC-596DA2EA1E0D";
name = Regular;
paths = (
{
closed = 1;
nodes = (
"242 -9 OFFCURVE",
"253 2 OFFCURVE",
"253 16 CURVE SMOOTH",
"253 29 OFFCURVE",
"242 41 OFFCURVE",
"228 41 CURVE SMOOTH",
"214 41 OFFCURVE",
"203 29 OFFCURVE",
"203 16 CURVE SMOOTH",
"203 2 OFFCURVE",
"214 -9 OFFCURVE",
"228 -9 CURVE SMOOTH"
);
},
{
closed = 1;
nodes = (
"469 -9 OFFCURVE",
"480 2 OFFCURVE",
"480 16 CURVE SMOOTH",
"480 29 OFFCURVE",
"469 41 OFFCURVE",
"455 41 CURVE SMOOTH",
"441 41 OFFCURVE",
"430 29 OFFCURVE",
"430 16 CURVE SMOOTH",
"430 2 OFFCURVE",
"441 -9 OFFCURVE",
"455 -9 CURVE SMOOTH"
);
},
{
closed = 1;
nodes = (
"356 457 OFFCURVE",
"367 468 OFFCURVE",
"367 482 CURVE SMOOTH",
"367 495 OFFCURVE",
"356 507 OFFCURVE",
"342 507 CURVE SMOOTH",
"328 507 OFFCURVE",
"317 495 OFFCURVE",
"317 482 CURVE SMOOTH",
"317 468 OFFCURVE",
"328 457 OFFCURVE",
"342 457 CURVE SMOOTH"
);
}
);
width = 682;
}
);
leftKerningGroup = v;
rightKerningGroup = v;
unicode = 0077;
},
{
glyphname = y;
lastChange = "2020-02-21 18:38:27 +0000";
layers = (
{
layerId = "7EBE3D46-E53E-419E-A3EC-596DA2EA1E0D";
name = Regular;
paths = (
{
closed = 1;
nodes = (
"377 500 LINE",
"268 151 LINE",
"158 500 LINE",
"29 500 LINE",
"186 59 LINE",
"192 43 OFFCURVE",
"208 11 OFFCURVE",
"224 8 CURVE",
"188 -79 LINE SMOOTH",
"172 -117 OFFCURVE",
"151 -141 OFFCURVE",
"99 -147 CURVE",
"121 -232 LINE",
"188 -264 OFFCURVE",
"270 -211 OFFCURVE",
"302 -115 CURVE SMOOTH",
"506 500 LINE"
);
}
);
width = 526;
}
);
leftKerningGroup = v;
rightKerningGroup = v;
unicode = 0079;
},
{
glyphname = s.001;
lastChange = "2020-02-20 01:15:47 +0000";
layers = (
{
layerId = "7EBE3D46-E53E-419E-A3EC-596DA2EA1E0D";
name = Regular;
paths = (
{
closed = 1;
nodes = (
"239 298 CURVE SMOOTH",
"164 315 OFFCURVE",
"139 331 OFFCURVE",
"139 355 CURVE SMOOTH",
"139 383 OFFCURVE",
"194 388 OFFCURVE",
"238 388 CURVE",
"267 389 OFFCURVE",
"320 382 OFFCURVE",
"348 372 CURVE",
"375 462 LINE",
"323 499 OFFCURVE",
"289 512 OFFCURVE",
"218 512 CURVE SMOOTH",
"100 512 OFFCURVE",
"44 449 OFFCURVE",
"44 366 CURVE SMOOTH",
"44 288 OFFCURVE",
"76 241 OFFCURVE",
"207 206 CURVE SMOOTH",
"269 189 OFFCURVE",
"303 179 OFFCURVE",
"303 150 CURVE SMOOTH",
"303 122 OFFCURVE",
"260 109 OFFCURVE",
"212 109 CURVE SMOOTH",
"163 109 OFFCURVE",
"114 116 OFFCURVE",
"68 137 CURVE",
"42 59 LINE",
"89 16 OFFCURVE",
"122 -5 OFFCURVE",
"221 -5 CURVE SMOOTH",
"337 -5 OFFCURVE",
"404 72 OFFCURVE",
"404 147 CURVE SMOOTH",
"404 235 OFFCURVE",
"357 272 OFFCURVE"
);
}
);
width = 434;
}
);
leftKerningGroup = e;
rightKerningGroup = e;
},
{
glyphname = y.001;
lastChange = "2019-01-10 16:13:08 +0000";
layers = (
{
layerId = "7EBE3D46-E53E-419E-A3EC-596DA2EA1E0D";
name = Regular;
paths = (
{
closed = 1;
nodes = (
"15 500 LINE",
"178 0 LINE",
"248 0 LINE",
"274.301 124.841 LINE",
"247.954 123.291 LINE",
"140 500 LINE"
);
},
{
closed = 1;
nodes = (
"462 500 LINE",
"337 500 LINE",
"188.42 -42.266 LINE",
"171.713 -98.562 OFFCURVE",
"131.453 -103.266 OFFCURVE",
"88.369 -82.571 CURVE",
"101.674 -218.575 LINE",
"183.831 -234.481 OFFCURVE",
"249.468 -191.619 OFFCURVE",
"279.51 -99.182 CURVE"
);
}
);
width = 478;
}
);
leftKerningGroup = v;
rightKerningGroup = v;
},
{
glyphname = a.002;
lastChange = "2020-02-15 16:45:22 +0000";
layers = (
{
hints = (
{
horizontal = 1;
place = "{553.816, 0}";
type = Stem;
}
);
layerId = "7EBE3D46-E53E-419E-A3EC-596DA2EA1E0D";
name = Regular;
paths = (
{
closed = 1;
nodes = (
"161 510 OFFCURVE",
"115 497 OFFCURVE",
"75 463 CURVE",
"102 373 LINE",
"151 388 OFFCURVE",
"176 388 OFFCURVE",
"225 388 CURVE SMOOTH",
"282 388 OFFCURVE",
"331 359 OFFCURVE",
"332 294 CURVE",
"301 307 OFFCURVE",
"274 305 OFFCURVE",
"184 304 CURVE SMOOTH",
"119 303 OFFCURVE",
"55 268 OFFCURVE",
"53 165 CURVE SMOOTH",
"51 50 OFFCURVE",
"116 -1 OFFCURVE",
"192 -1 CURVE SMOOTH",
"256 -1 OFFCURVE",
"299 20 OFFCURVE",
"330 60 CURVE",
"336 0 LINE",
"441 0 LINE",
"441 294 LINE SMOOTH",
"441 431 OFFCURVE",
"362 510 OFFCURVE",
"255 510 CURVE SMOOTH"
);
},
{
closed = 1;
nodes = (
"197 113 OFFCURVE",
"161 124 OFFCURVE",
"160 170 CURVE SMOOTH",
"159 213 OFFCURVE",
"206 220 OFFCURVE",
"240 220 CURVE",
"298 220 OFFCURVE",
"302 219 OFFCURVE",
"328 208 CURVE",
"328 158 LINE",
"309 133 OFFCURVE",
"270 113 OFFCURVE",
"240 113 CURVE SMOOTH"
);
}
);
width = 501;
}
);
leftKerningGroup = e;
rightKerningGroup = e;
},
{
glyphname = a_old;
lastChange = "2020-03-07 09:29:34 +0000";
layers = (
{
hints = (
{
horizontal = 1;
place = "{553.816, 0}";
type = Stem;
}
);
layerId = "7EBE3D46-E53E-419E-A3EC-596DA2EA1E0D";
name = Regular;
paths = (
{
closed = 1;
nodes = (
"161 510 OFFCURVE",
"115 487 OFFCURVE",
"75 453 CURVE",
"102 363 LINE",
"151 388 OFFCURVE",
"177 390 OFFCURVE",
"225 398 CURVE SMOOTH",
"282 408 OFFCURVE",
"331 379 OFFCURVE",
"332 334 CURVE",
"301 327 OFFCURVE",
"274 326 OFFCURVE",
"184 305 CURVE SMOOTH",
"120 290 OFFCURVE",
"55 258 OFFCURVE",
"53 155 CURVE SMOOTH",
"51 40 OFFCURVE",
"116 -1 OFFCURVE",
"192 -1 CURVE SMOOTH",
"256 -1 OFFCURVE",
"299 20 OFFCURVE",
"330 60 CURVE",
"336 0 LINE",
"441 0 LINE",
"441 294 LINE SMOOTH",
"441 431 OFFCURVE",
"362 510 OFFCURVE",
"255 510 CURVE SMOOTH"
);
},
{
closed = 1;
nodes = (
"197 113 OFFCURVE",
"161 114 OFFCURVE",
"160 160 CURVE SMOOTH",
"159 203 OFFCURVE",
"206 212 OFFCURVE",
"240 224 CURVE",
"298 241 OFFCURVE",
"302 241 OFFCURVE",
"328 248 CURVE",
"328 158 LINE",
"309 133 OFFCURVE",
"270 113 OFFCURVE",
"240 113 CURVE SMOOTH"
);
}
);
width = 501;
}
);
leftKerningGroup = e;
rightKerningGroup = e;
},
{
glyphname = a_pbdq;
lastChange = "2020-02-20 19:22:11 +0000";
layers = (
{
layerId = "7EBE3D46-E53E-419E-A3EC-596DA2EA1E0D";
name = Regular;
paths = (
{
closed = 1;
nodes = (
"238 511 OFFCURVE",
"192 477 OFFCURVE",
"173 429 CURVE",
"173 500 LINE",
"60 500 LINE",
"60 0 LINE",
"173 0 LINE",
"173 41 LINE",
"194 11 OFFCURVE",
"238 -11 OFFCURVE",
"293 -11 CURVE SMOOTH",
"402 -11 OFFCURVE",
"481 100 OFFCURVE",
"481 232 CURVE SMOOTH",
"482 266 LINE",
"480 405 OFFCURVE",
"412 511 OFFCURVE",
"302 511 CURVE SMOOTH"
);
},
{
closed = 1;
nodes = (
"368 163 OFFCURVE",
"336 106 OFFCURVE",
"255 105 CURVE SMOOTH",
"198 104 OFFCURVE",
"167 135 OFFCURVE",
"166 197 CURVE SMOOTH",
"164 324 OFFCURVE",
"195 393 OFFCURVE",
"274 393 CURVE SMOOTH",
"341 393 OFFCURVE",
"370 347 OFFCURVE",
"369 251 CURVE SMOOTH"
);
}
);
width = 522;
}
);
},
{
glyphname = "De-cy";
lastChange = "2020-01-25 07:17:10 +0000";
layers = (
{
components = (
{
name = _I_small;
transform = "{1, 0, 0, 1, 97, 328}";
},
{
name = _I_small;
transform = "{1, 0, 0, 1, 97, 474}";
},
{
name = _I;
transform = "{1, 0, 0, 1, 417, 0}";
},
{
name = _EF_horizontal;
transform = "{1, 0, 0, 1, 260, -303}";
},
{
name = _EF_horizontal;
transform = "{1, 0, 0, 1, -112, -303}";
},
{
name = _EF_horizontal;
transform = "{1, 0, 0, 1, 3, 288}";
},
{
name = _EF_horizontal;
transform = "{1, 0, 0, 1, 140, 288}";
},
{
name = _EF_horizontal;
transform = "{1, 0, 0, 1, 66, -303}";
},
{
name = _D_cyr;
transform = "{-1, 0, 0, 1, 672, 0}";
},
{
name = _D_cyr;
transform = "{1, 0, 0, 1, -43, 0}";
}
);
layerId = "7EBE3D46-E53E-419E-A3EC-596DA2EA1E0D";
name = Regular;
paths = (
{
closed = 1;
nodes = (
"21 40 LINE",
"34 36 OFFCURVE",
"72 49 OFFCURVE",
"74 49 CURVE",
"131 49 OFFCURVE",
"240 40 OFFCURVE",
"240 186 CURVE",
"240 375 LINE",
"127 375 LINE",
"127 178 LINE",
"127 132 OFFCURVE",
"84 109 OFFCURVE",
"15 110 CURVE",
"14 56 LINE"
);
}
);
width = 629;
}
);
unicode = 0414;
},
{
glyphname = "be-cy";
lastChange = "2019-01-10 16:16:48 +0000";
layers = (
{
components = (
{
name = _o_curve;
transform = "{-1, 0, 0, -1, 532, 495}";
},
{
name = _o_curve;
transform = "{1, 0, 0, -1, 26, 495}";
},
{
name = _o_curve;
transform = "{-1, 0, 0, 1, 532, 0}";
}
);
layerId = "7EBE3D46-E53E-419E-A3EC-596DA2EA1E0D";
name = Regular;
paths = (
{
closed = 1;
nodes = (
"181.961 404.232 LINE",
"192.003 513.657 OFFCURVE",
"196.744 636.638 OFFCURVE",
"472.12 590.439 CURVE",
"442.344 716.988 LINE",
"110.66 771.298 OFFCURVE",
"61 557.476 OFFCURVE",
"61 355 CURVE",
"61 328.224 OFFCURVE",
"60 261.224 OFFCURVE",
"60 242 CURVE",
"69.426 222.033 LINE",
"165.3 216.523 LINE"
);
},
{
closed = 1;
nodes = (
"291 406 LINE",
"283 516 LINE",
"195 516 OFFCURVE",
"121 426 OFFCURVE",
"121 277 CURVE",
"121 230 OFFCURVE",
"173 173 OFFCURVE",
"173 270 CURVE",
"173 338 OFFCURVE",
"200 396 OFFCURVE",
"275 396 CURVE",
"277 396 OFFCURVE",
"279 396 OFFCURVE",
"281 396 CURVE"
);
}
);
width = 558;
}
);
leftKerningGroup = e;
rightKerningGroup = e;
unicode = 0431;
},
{
glyphname = "che-cy";
lastChange = "2017-02-21 06:29:50 +0000";
layers = (
{
components = (
{
name = _I_small;
transform = "{1, 0, 0, 1, 325, 0}";
},
{
name = _I_small;
transform = "{1, 0, 0, 1, 325, 165}";
},
{
name = _I_small;
transform = "{1, 0, 0, 1, 325, 329}";
},
{
name = _I_small;
transform = "{1, 0, 0, 1, 30, 332}";
}
);
layerId = "7EBE3D46-E53E-419E-A3EC-596DA2EA1E0D";
name = Regular;
paths = (
{
closed = 1;
nodes = (
"173 427.21 OFFCURVE",
"60 449.051 OFFCURVE",
"60 335 CURVE",
"60 209.787 OFFCURVE",
"127.874 141.773 OFFCURVE",
"269.723 152.052 CURVE",
"432.019 164.035 LINE",
"409.696 284.582 LINE",
"287.134 273.925 LINE",
"202.203 266.2 OFFCURVE",
"173 280.564 OFFCURVE",
"173 336 CURVE"
);
}
);
width = 528;
}
);
leftKerningGroup = e;
rightKerningGroup = n;
unicode = 0447;
},
{
glyphname = "ia-cy";
lastChange = "2020-03-07 09:27:33 +0000";
layers = (
{
components = (
{
name = "_i-dotless";
transform = "{1, 0, 0, 1, 269, 0}";
},
{
name = _ya_cyr;
transform = "{1, 0, 0, 1, 51, -117}";
}
);
layerId = "7EBE3D46-E53E-419E-A3EC-596DA2EA1E0D";
name = Regular;
paths = (
{
closed = 1;
nodes = (
"186 27 OFFCURVE",
"209 58 OFFCURVE",
"234 101 CURVE",
"259 145 OFFCURVE",
"305 145 OFFCURVE",
"338 147 CURVE",
"346 148 OFFCURVE",
"409.692 193.574 OFFCURVE",
"348.499 209.366 CURVE",
"239 205 LINE",
"155 197 OFFCURVE",
"99 142 OFFCURVE",
"49 0 CURVE",
"172 0 LINE"
);
}
);
width = 499;
}
);
leftKerningGroup = e;
rightKerningGroup = n;
unicode = 044F;
},
{
glyphname = one;
lastChange = "2018-12-26 09:41:19 +0000";
layers = (
{
components = (
{
name = _I_small;
transform = "{1, 0, 0, 1, 109, 23}";
},
{
name = _I_small;
transform = "{1, 0, 0, 1, 109, 168}";
},
{
name = _I_small;
transform = "{1, 0, 0, 1, 109, 331}";
},
{
name = _I_small;
transform = "{1, 0, 0, 1, 109, 477}";
},
{
name = "_dash-small";
transform = "{1, 0, 0, 1, -9, -219}";
},
{
name = "_dash-small";
transform = "{1, 0, 0, 1, -92, -219}";
}
);
layerId = "7EBE3D46-E53E-419E-A3EC-596DA2EA1E0D";
name = Regular;
paths = (
{
closed = 1;
nodes = (
"30 556.866 LINE",
"252 604.124 LINE",
"252 720 LINE",
"201.965 720 LINE",
"30 677.54 LINE"
);
}
);
width = 363;
}
);
unicode = 0031;
},
{
glyphname = two;
lastChange = "2020-03-07 09:20:02 +0000";
layers = (
{
components = (
{
name = _EF_horizontal;
transform = "{-1, 0, 0, -1, 473, 413}";
},
{
name = _EF_horizontal;
transform = "{-1, 0, 0, -1, 586, 413}";
}
);
layerId = "7EBE3D46-E53E-419E-A3EC-596DA2EA1E0D";
name = Regular;
paths = (
{
closed = 1;
nodes = (
"53 50 OFFCURVE",
"42 39 OFFCURVE",
"42 25 CURVE SMOOTH",
"42 12 OFFCURVE",
"53 0 OFFCURVE",
"67 0 CURVE SMOOTH",
"81 0 OFFCURVE",
"92 12 OFFCURVE",
"92 25 CURVE SMOOTH",
"92 39 OFFCURVE",
"81 50 OFFCURVE",
"67 50 CURVE SMOOTH"
);
},
{
closed = 1;
nodes = (
"471 655 OFFCURVE",
"393 736 OFFCURVE",
"247 736 CURVE SMOOTH",
"199 736 OFFCURVE",
"139 726 OFFCURVE",
"80 682 CURVE",
"95 585 LINE",
"134 595 OFFCURVE",
"185 602 OFFCURVE",
"246 602 CURVE SMOOTH",
"329 602 OFFCURVE",
"349 567 OFFCURVE",
"349 530 CURVE SMOOTH",
"349 472 OFFCURVE",
"303 433 OFFCURVE",
"46 38 CURVE",
"67 0 LINE",
"149 0 LINE",
"409 388 OFFCURVE",
"471 441 OFFCURVE",
"471 538 CURVE SMOOTH"
);
}
);
width = 522;
}
);
unicode = 0032;
},
{
glyphname = five;
lastChange = "2020-03-07 09:10:06 +0000";
layers = (
{
components = (
{
name = _I_small;
transform = "{1, 0, 0, 1, 26, 385}";
},
{
name = _I_small;
transform = "{1, 0, 0, 1, 26, 532}";
},
{
name = _EF_horizontal;
transform = "{1, 0, 0, 1, 25, 307}";
},
{
name = _EF_horizontal;
transform = "{1, 0, 0, 1, -54, 307}";
},
{
name = _curve_cursive;
transform = "{-1, 0, 0, 1, 467, 0}";
}
);
layerId = "7EBE3D46-E53E-419E-A3EC-596DA2EA1E0D";
name = Regular;
paths = (
{
closed = 1;
nodes = (
"303 227 LINE",
"303 76.661 OFFCURVE",
"417 68.188 OFFCURVE",
"417 252 CURVE",
"417 376.793 OFFCURVE",
"349.82 491 OFFCURVE",
"211 491 CURVE",
"119.792 491 OFFCURVE",
"87.812 436.349 OFFCURVE",
"56 420.382 CURVE",
"56 366 LINE",
"95 345 LINE",
"106 354 OFFCURVE",
"136 366 OFFCURVE",
"200 366 CURVE",
"268.155 366 OFFCURVE",
"303 323.159 OFFCURVE",
"303 254 CURVE"
);
},
{
closed = 1;
nodes = (
"95 341 OFFCURVE",
"106 352 OFFCURVE",
"106 366 CURVE SMOOTH",
"106 379 OFFCURVE",
"95 391 OFFCURVE",
"81 391 CURVE SMOOTH",
"67 391 OFFCURVE",
"56 379 OFFCURVE",
"56 366 CURVE SMOOTH",
"56 352 OFFCURVE",
"67 341 OFFCURVE",
"81 341 CURVE SMOOTH"
);
}
);
width = 447;
}
);
unicode = 0035;
},
{
glyphname = six;
lastChange = "2020-03-07 09:19:18 +0000";
layers = (
{
components = (
{
name = _o_curve;
transform = "{-1, 0, 0, -1, 502, 495}";
},
{
name = _o_curve;
transform = "{1, 0, 0, -1, -4, 495}";
}
);
layerId = "7EBE3D46-E53E-419E-A3EC-596DA2EA1E0D";
name = Regular;
paths = (
{
closed = 1;
nodes = (
"133 295 LINE",
"133 417.02 OFFCURVE",
"153.634 572.223 OFFCURVE",
"283.292 576.009 CURVE",
"319.104 577.128 OFFCURVE",
"334 577 OFFCURVE",
"361 569 CURVE",
"393 673 LINE",
"357 701 OFFCURVE",
"331.306 713 OFFCURVE",
"276 713 CURVE",
"87.056 713 OFFCURVE",
"31 483 OFFCURVE",
"31 325 CURVE",
"31 242 LINE",
"133 235 LINE"
);
},
{
closed = 1;
nodes = (
"165 461 OFFCURVE",
"91 389 OFFCURVE",
"91 241 CURVE SMOOTH",
"91 194 OFFCURVE",
"143 137 OFFCURVE",
"143 234 CURVE SMOOTH",
"143 293 OFFCURVE",
"176 353 OFFCURVE",
"251 353 CURVE SMOOTH",
"316 353 OFFCURVE",
"355 290 OFFCURVE",
"355 233 CURVE SMOOTH",
"355 203 OFFCURVE",
"467 212 OFFCURVE",
"467 242 CURVE",
"465 367 OFFCURVE",
"386 461 OFFCURVE",
"254 461 CURVE SMOOTH"
);
}
);
width = 498;
}
);
unicode = 0036;
},
{
glyphname = eight;
lastChange = "2020-03-07 09:18:21 +0000";
layers = (
{
layerId = "7EBE3D46-E53E-419E-A3EC-596DA2EA1E0D";
name = Regular;
paths = (
{
closed = 1;
nodes = (
"50 474.787 OFFCURVE",
"70 414 OFFCURVE",
"137 377 CURVE",
"64 326 OFFCURVE",
"40 270 OFFCURVE",
"40 189 CURVE",
"40 63.055 OFFCURVE",
"118.281 -32 OFFCURVE",
"259 -32 CURVE",
"391.596 -32 OFFCURVE",
"480 70.769 OFFCURVE",
"480 189 CURVE",
"480 271.898 OFFCURVE",
"431 334 OFFCURVE",
"374 368 CURVE",
"440 402 OFFCURVE",
"470 466.91 OFFCURVE",
"470 535 CURVE",
"470 657.907 OFFCURVE",
"376.691 729 OFFCURVE",
"259 729 CURVE",
"131.04 729 OFFCURVE",
"50 656.965 OFFCURVE",
"50 535 CURVE"
);
},
{
closed = 1;
nodes = (
"156 282.836 OFFCURVE",
"203.488 312 OFFCURVE",
"260 312 CURVE",
"314.445 312 OFFCURVE",
"362 280.175 OFFCURVE",
"362 207 CURVE",
"362 199 LINE",
"362 146.375 OFFCURVE",
"334.835 98 OFFCURVE",
"260 98 CURVE",
"177.873 98 OFFCURVE",
"156 144.297 OFFCURVE",
"156 199 CURVE"
);
},
{
closed = 1;
nodes = (
"166 550 OFFCURVE",
"196.399 598 OFFCURVE",
"260 598 CURVE",
"325 598 OFFCURVE",
"352 551 OFFCURVE",
"352 509 CURVE",
"352 468 OFFCURVE",
"314.842 424 OFFCURVE",
"260 424 CURVE",
"259 424 LINE",
"202.121 424 OFFCURVE",
"166 466 OFFCURVE",
"166 509 CURVE"
);
}
);
width = 520;
}
);
unicode = 0038;
},
{
glyphname = asterisk;
lastChange = "2017-02-21 06:29:50 +0000";
layers = (
{
layerId = "7EBE3D46-E53E-419E-A3EC-596DA2EA1E0D";
name = Regular;
paths = (
{
closed = 1;
nodes = (
"296.449 532.289 LINE",
"368.549 572.794 LINE",
"322.076 654.523 LINE",
"245 607.371 LINE",
"245 703 LINE",
"168 703 LINE",
"168 605.728 LINE",
"91.382 654.983 LINE",
"52.036 573.011 LINE",
"122.455 533 LINE",
"50.804 492.289 LINE",
"94.791 412.462 LINE",
"173 458.842 LINE",
"173 363 LINE",
"250 363 LINE",
"250 458.763 LINE",
"327.838 412.061 LINE",
"365.753 494.486 LINE"
);
}
);
width = 419;
}
);
unicode = 002A;
},
{
glyphname = bullet;
lastChange = "2017-02-21 06:29:50 +0000";
layers = (
{
layerId = "7EBE3D46-E53E-419E-A3EC-596DA2EA1E0D";
name = Regular;
paths = (
{
closed = 1;
nodes = (
"301.072 170 OFFCURVE",
"375 239.379 OFFCURVE",
"375 326 CURVE",
"375 414.621 OFFCURVE",
"301.072 484 OFFCURVE",
"218 484 CURVE",
"135.992 484 OFFCURVE",
"60 414.814 OFFCURVE",
"60 326 CURVE",
"60 239.186 OFFCURVE",
"135.992 170 OFFCURVE",
"218 170 CURVE"
);
}
);
width = 435;
}
);
unicode = 2022;
},
{
glyphname = numbersign;
lastChange = "2017-02-21 06:29:50 +0000";
layers = (
{
layerId = "7EBE3D46-E53E-419E-A3EC-596DA2EA1E0D";
name = Regular;
paths = (
{
closed = 1;
nodes = (
"616.157 307 LINE",
"514.191 307 LINE",
"527.119 434 LINE",
"635.55 434 LINE",
"645.627 565 LINE",
"541.075 565 LINE",
"556.075 720 LINE",
"445.684 720 LINE",
"431.684 565 LINE",
"324.075 565 LINE",
"339.075 720 LINE",
"229.684 720 LINE",
"215.684 565 LINE",
"95.45 565 LINE",
"85.373 434 LINE",
"200.947 434 LINE",
"188.779 307 LINE",
"67.267 307 LINE",
"58.6 177 LINE",
"175.816 177 LINE",
"155.816 -20 LINE",
"265.123 -20 LINE",
"285.123 177 LINE",
"391.816 177 LINE",
"371.816 -20 LINE",
"481.123 -20 LINE",
"501.123 177 LINE",
"608.935 177 LINE"
);
},
{
closed = 1;
nodes = (
"298.191 307 LINE",
"311.119 434 LINE",
"417.809 434 LINE",
"404.881 307 LINE"
);
}
);
width = 704;
}
);
unicode = 0023;
},
{
glyphname = question;
lastChange = "2018-12-31 15:11:51 +0000";
layers = (
{
components = (
{
name = _dot;
transform = "{1, 0, 0, 1, 104, -609}";
}
);
layerId = "7EBE3D46-E53E-419E-A3EC-596DA2EA1E0D";
name = Regular;
paths = (
{
closed = 1;
nodes = (
"323 485 OFFCURVE",
"306 453 OFFCURVE",
"216 369 CURVE SMOOTH",
"160 317 OFFCURVE",
"160 268 OFFCURVE",
"160 205 CURVE",
"285 205 LINE",
"285 268 OFFCURVE",
"295 291 OFFCURVE",
"315 311 CURVE SMOOTH",
"425 426 OFFCURVE",
"455 448 OFFCURVE",
"455 530 CURVE SMOOTH",
"455 636 OFFCURVE",
"386 718 OFFCURVE",
"241 718 CURVE SMOOTH",
"195 718 OFFCURVE",
"129 709 OFFCURVE",
"77 673 CURVE",
"95 553 LINE",
"136 574 OFFCURVE",
"184 594 OFFCURVE",
"240 594 CURVE SMOOTH",
"309 594 OFFCURVE",
"323 550 OFFCURVE",
"323 522 CURVE SMOOTH"
);
}
);
width = 518;
}
);
unicode = 003F;
},
{
glyphname = braceleft;
lastChange = "2017-02-21 06:29:50 +0000";
layers = (
{
layerId = "7EBE3D46-E53E-419E-A3EC-596DA2EA1E0D";
name = Regular;
paths = (
{
closed = 1;
nodes = (
"449 -85 LINE",
"410 -85 LINE",
"352.045 -85 OFFCURVE",
"323.97 -65.675 OFFCURVE",
"319 -24.077 CURVE",
"319 153 LINE",
"319 244.717 OFFCURVE",
"275.956 298.83 OFFCURVE",
"205.866 304.925 CURVE",
"206.574 265.249 LINE",
"276.175 276.345 OFFCURVE",
"318 330.472 OFFCURVE",
"318 420 CURVE",
"318 541.931 LINE",
"322.95 582.198 OFFCURVE",
"351.097 601 OFFCURVE",
"410 601 CURVE",
"449 601 LINE",
"449 733 LINE",
"393 733 LINE",
"254.845 733 OFFCURVE",
"197 652.017 OFFCURVE",
"197 533 CURVE",
"197 429 LINE",
"197 373.57 OFFCURVE",
"180.619 351 OFFCURVE",
"91 351 CURVE",
"60 351 LINE",
"60 221 LINE",
"91 221 LINE",
"176.747 221 OFFCURVE",
"197 193.017 OFFCURVE",
"197 141 CURVE",
"197 -17 LINE",
"197 -147.532 OFFCURVE",
"267.898 -215 OFFCURVE",
"393 -215 CURVE",
"449 -215 LINE"
);
}
);
width = 509;
}
);
unicode = 007B;
},
{
glyphname = braceright;
lastChange = "2017-02-24 15:41:04 +0000";
layers = (
{
layerId = "7EBE3D46-E53E-419E-A3EC-596DA2EA1E0D";
name = Regular;
paths = (
{
closed = 1;
nodes = (
"116 -214 LINE",
"241.102 -214 OFFCURVE",
"312 -146.532 OFFCURVE",
"312 -16 CURVE",
"312 142 LINE",
"312 194.017 OFFCURVE",
"332.253 222 OFFCURVE",
"418 222 CURVE",
"449 222 LINE",
"449 352 LINE",
"418 352 LINE",
"328.381 352 OFFCURVE",
"312 374.57 OFFCURVE",
"312 430 CURVE",
"312 534 LINE",
"312 653.017 OFFCURVE",
"254.155 734 OFFCURVE",
"116 734 CURVE",
"60 734 LINE",
"60 602 LINE",
"99 602 LINE",
"157.903 602 OFFCURVE",
"186.05 583.198 OFFCURVE",
"191 542.931 CURVE",
"191 421 LINE",
"191 331.472 OFFCURVE",
"232.825 277.345 OFFCURVE",
"302.426 266.249 CURVE",
"303.134 305.925 LINE",
"233.044 299.83 OFFCURVE",
"190 245.717 OFFCURVE",
"190 154 CURVE",
"190 -23.077 LINE",
"185.03 -64.675 OFFCURVE",
"156.955 -84 OFFCURVE",
"99 -84 CURVE",
"60 -84 LINE",
"60 -214 LINE"
);
}
);
width = 506;
}
);
unicode = 007D;
},
{
glyphname = currency;
lastChange = "2017-02-21 06:29:50 +0000";
layers = (
{
layerId = "7EBE3D46-E53E-419E-A3EC-596DA2EA1E0D";
name = Regular;
paths = (
{
closed = 1;
nodes = (
"142.047 599.211 LINE",
"48.895 507.353 LINE",
"131.269 422.811 LINE",
"134.715 431.428 LINE",
"128.216 415.739 OFFCURVE",
"123 392.267 OFFCURVE",
"123 369 CURVE",
"123 346.733 OFFCURVE",
"128.158 323.522 OFFCURVE",
"134.68 306.751 CURVE",
"134.513 307.675 LINE",
"134.613 307.375 OFFCURVE",
"136.74 296.047 OFFCURVE",
"138.929 293.858 CURVE",
"138.882 322.047 LINE",
"50.783 232.758 LINE",
"144.002 140.834 LINE",
"222.86 218.681 LINE",
"242.495 211.62 OFFCURVE",
"260.397 209 OFFCURVE",
"279 209 CURVE",
"298.524 209 OFFCURVE",
"316.485 211.618 OFFCURVE",
"336.115 218.672 CURVE",
"419 135.787 LINE",
"512.325 229.111 LINE",
"430.769 309.647 LINE",
"425.202 302.996 OFFCURVE",
"422.002 299.624 OFFCURVE",
"420.3 298.2 CURVE",
"429.854 315.155 OFFCURVE",
"437 343.134 OFFCURVE",
"437 369 CURVE",
"437 397.055 OFFCURVE",
"429.209 426.34 OFFCURVE",
"419.396 441.584 CURVE",
"437.607 432.692 OFFCURVE",
"429.629 420.575 OFFCURVE",
"420.944 437.944 CURVE",
"419.113 414.943 LINE",
"516.23 513.23 LINE",
"422.976 605.189 LINE",
"347 529.213 LINE",
"347 514.502 LINE",
"322.729 526.386 OFFCURVE",
"301.898 530 OFFCURVE",
"279 530 CURVE",
"259.604 530 OFFCURVE",
"240.904 527.141 OFFCURVE",
"219.935 518.148 CURVE",
"221.022 519.236 LINE"
);
},
{
closed = 1;
nodes = (
"321.81 418 OFFCURVE",
"347.691 382.07 OFFCURVE",
"332.938 350.458 CURVE",
"332.769 349.692 LINE",
"327.276 336.509 OFFCURVE",
"305.284 321 OFFCURVE",
"279 321 CURVE",
"260.27 321 OFFCURVE",
"244.65 325.723 OFFCURVE",
"237.328 333.609 CURVE",
"237.071 334.142 LINE",
"223.633 347.58 OFFCURVE",
"221 355.041 OFFCURVE",
"221 369 CURVE",
"221 374.733 OFFCURVE",
"221.574 377.315 OFFCURVE",
"225.944 386.056 CURVE",
"226.138 386.877 LINE",
"233.521 403.489 OFFCURVE",
"253.757 418 OFFCURVE",
"279 418 CURVE"
);
}
);
width = 565;
}
);
unicode = 00A4;
},
{
glyphname = infinity;
lastChange = "2017-02-21 06:29:50 +0000";
layers = (
{
layerId = "7EBE3D46-E53E-419E-A3EC-596DA2EA1E0D";
name = Regular;
paths = (
{
closed = 1;
nodes = (
"334.442 136 OFFCURVE",
"400.952 167.9 OFFCURVE",
"433.52 217.443 CURVE",
"458.985 170.021 OFFCURVE",
"494.602 132.916 OFFCURVE",
"587.902 132 CURVE",
"725.606 130.988 OFFCURVE",
"809.915 229.718 OFFCURVE",
"811 358.832 CURVE",
"812.087 489.374 OFFCURVE",
"720.497 592 OFFCURVE",
"591 592 CURVE",
"527.831 592 OFFCURVE",
"466.154 556.154 OFFCURVE",
"433.372 513.376 CURVE",
"402.924 557.712 OFFCURVE",
"341.457 592 OFFCURVE",
"275 592 CURVE",
"143.244 592 OFFCURVE",
"61.084 490.965 OFFCURVE",
"60 364.171 CURVE",
"58.916 226.467 OFFCURVE",
"141.565 136 OFFCURVE",
"273 136 CURVE"
);
},
{
closed = 1;
nodes = (
"515.385 268.956 OFFCURVE",
"477.195 308.829 OFFCURVE",
"477.999 362.702 CURVE",
"478 416.294 OFFCURVE",
"518.124 454 OFFCURVE",
"583 454 CURVE",
"591 454 LINE",
"659.954 453.042 OFFCURVE",
"701 416.017 OFFCURVE",
"701 361 CURVE",
"700.198 306.716 OFFCURVE",
"658.845 267.043 OFFCURVE",
"589.137 267.998 CURVE"
);
},
{
closed = 1;
nodes = (
"200.052 270 OFFCURVE",
"170.171 309.214 OFFCURVE",
"170.999 364.702 CURVE",
"171 419.823 OFFCURVE",
"202.685 456.947 OFFCURVE",
"267.855 456.002 CURVE",
"275 456 LINE",
"344.924 456 OFFCURVE",
"386 418.162 OFFCURVE",
"386 363 CURVE",
"386 362 LINE",
"386 356 LINE",
"385.223 307.287 OFFCURVE",
"343.011 270 OFFCURVE",
"273 270 CURVE"
);
}
);
width = 871;
}
);
unicode = 221E;
},
{
glyphname = percent;
lastChange = "2017-02-21 06:29:50 +0000";
layers = (
{
components = (
{
name = _percent;
transform = "{1, 0, 0, 1, 390, -251}";
},
{
name = _percent;
transform = "{1, 0, 0, 1, 69, 192}";
}
);
layerId = "7EBE3D46-E53E-419E-A3EC-596DA2EA1E0D";
name = Regular;
paths = (
{
closed = 1;
nodes = (
"542.366 720 LINE",
"116 32.116 LINE",
"116 -19 LINE",
"212.612 -19 LINE",
"641 667.845 LINE",
"641 720 LINE"
);
}
);
width = 696;
}
);
unicode = 0025;
},
{
glyphname = radical;
lastChange = "2017-02-21 06:29:50 +0000";
layers = (
{
components = (
{
name = _EF_horizontal;
transform = "{1, 0, 0, 1, 324, 308}";
},
{
name = _backslash;
transform = "{-1, 0, 0, 1, 595, 1}";
}
);
layerId = "7EBE3D46-E53E-419E-A3EC-596DA2EA1E0D";
name = Regular;
paths = (
{
closed = 1;
nodes = (
"60 390.251 LINE",
"224.042 -106 LINE",
"282.263 -106 LINE",
"315.457 3.415 LINE",
"166.928 449 LINE",
"60 449 LINE"
);
}
);
width = 730;
}
);
unicode = 221A;
},
{
glyphname = summation;
lastChange = "2017-02-27 18:43:29 +0000";
layers = (
{
components = (
{
name = _EF_horizontal;
transform = "{1, 0, 0, 1, 149, 313}";
},
{
name = _EF_horizontal;
transform = "{1, 0, 0, 1, -1, 313}";
},
{
name = _X;
transform = "{-1, 0, 0, 1, 625, 8}";
},
{
name = _EF_horizontal;
transform = "{1, 0, 0, -1, 149, 392}";
},
{
name = _EF_horizontal;
transform = "{1, 0, 0, -1, -1, 392}";
},
{
name = _X;
transform = "{-1, 0, 0, -1, 625, 697}";
}
);
layerId = "7EBE3D46-E53E-419E-A3EC-596DA2EA1E0D";
name = Regular;
paths = (
{
closed = 1;
nodes = (
"362.731 352.262 LINE",
"342.278 320.693 LINE",
"342.723 384.275 LINE"
);
}
);
width = 555;
}
);
unicode = 2211;
},
{
glyphname = at;
lastChange = "2017-02-21 06:29:50 +0000";
layers = (
{
layerId = "7EBE3D46-E53E-419E-A3EC-596DA2EA1E0D";
name = Regular;
paths = (
{
closed = 1;
nodes = (
"573.726 73 LINE",
"687.058 73 LINE",
"734.274 521 LINE",
"620.942 521 LINE"
);
},
{
closed = 1;
nodes = (
"636.948 470.588 LINE",
"603.484 520.629 OFFCURVE",
"551.349 534 OFFCURVE",
"504 534 CURVE",
"347.281 534 OFFCURVE",
"268.815 404.313 OFFCURVE",
"256.055 283.094 CURVE",
"249.05 212.99 LINE",
"236.108 77.052 OFFCURVE",
"312.92 -28 OFFCURVE",
"429 -28 CURVE",
"515.289 -28 OFFCURVE",
"568.977 20.488 OFFCURVE",
"596.342 79.112 CURVE"
);
},
{
closed = 1;
nodes = (
"366.952 269.049 LINE",
"374.16 342.021 OFFCURVE",
"407.609 409 OFFCURVE",
"495 409 CURVE",
"563.558 409 OFFCURVE",
"596.796 389.03 OFFCURVE",
"607.69 380.616 CURVE",
"597.059 283.169 LINE",
"589.271 214.086 OFFCURVE",
"569.884 96 OFFCURVE",
"438 96 CURVE",
"377.153 96 OFFCURVE",
"353.933 149.24 OFFCURVE",
"361.932 217.678 CURVE"
);
},
{
closed = 1;
nodes = (
"576.628 117 LINE",
"563.145 -102.955 OFFCURVE",
"770.508 -96.356 OFFCURVE",
"844.099 5.27 CURVE",
"888.902 67.632 OFFCURVE",
"923 152.328 OFFCURVE",
"923 268 CURVE",
"923 573.468 OFFCURVE",
"725.554 710 OFFCURVE",
"491 710 CURVE",
"258.209 710 OFFCURVE",
"80 565.535 OFFCURVE",
"80 268 CURVE",
"80 -29.579 OFFCURVE",
"258.221 -173 OFFCURVE",
"491 -173 CURVE",
"535.219 -173 OFFCURVE",
"579.537 -166.56 OFFCURVE",
"623.122 -152.665 CURVE",
"574.854 -31.995 LINE",
"546.566 -39.344 OFFCURVE",
"522.41 -44 OFFCURVE",
"490 -44 CURVE",
"304.117 -44 OFFCURVE",
"193 61.567 OFFCURVE",
"193 273 CURVE",
"193 485.963 OFFCURVE",
"303.965 584 OFFCURVE",
"490 584 CURVE",
"676.305 584 OFFCURVE",
"807 485.01 OFFCURVE",
"807 273 CURVE",
"807 216.712 OFFCURVE",
"797.193 163.218 OFFCURVE",
"773.056 114.944 CURVE",
"773.429 115.797 OFFCURVE",
"773.724 116.395 OFFCURVE",
"774.009 117 CURVE"
);
}
);
width = 983;
}
);
unicode = 0040;
},
{
glyphname = ampersand;
lastChange = "2017-02-21 06:29:50 +0000";
layers = (
{
layerId = "7EBE3D46-E53E-419E-A3EC-596DA2EA1E0D";
name = Regular;
paths = (
{
closed = 1;
nodes = (
"174 244.536 OFFCURVE",
"197.848 274.958 OFFCURVE",
"243.991 306.907 CURVE",
"388.108 123.004 LINE",
"361.711 102.162 OFFCURVE",
"330.367 91 OFFCURVE",
"292 91 CURVE",
"216.263 91 OFFCURVE",
"174 133.275 OFFCURVE",
"174 194 CURVE"
);
},
{
closed = 1;
nodes = (
"379 512.87 OFFCURVE",
"341.954 485.138 OFFCURVE",
"281.247 452.824 CURVE",
"273.894 462.279 LINE",
"241.324 503.338 OFFCURVE",
"232 523.419 OFFCURVE",
"232 556 CURVE",
"232 593.235 OFFCURVE",
"255.914 623 OFFCURVE",
"308 623 CURVE",
"353.803 623.935 OFFCURVE",
"379 599.488 OFFCURVE",
"379 561 CURVE"
);
},
{
closed = 1;
nodes = (
"619 30.958 LINE",
"539.562 127.218 LINE",
"571.443 189.868 OFFCURVE",
"595.617 271.807 OFFCURVE",
"590.252 328.683 CURVE",
"479.306 368.916 LINE",
"482.839 304.947 OFFCURVE",
"472.479 273.167 OFFCURVE",
"457.454 232.41 CURVE",
"349.165 367.368 LINE",
"420.505 409.652 OFFCURVE",
"491 458.974 OFFCURVE",
"491 570 CURVE",
"491 660.985 OFFCURVE",
"424.702 741 OFFCURVE",
"311 741 CURVE",
"192.461 741 OFFCURVE",
"119 657.368 OFFCURVE",
"119 547 CURVE",
"119 510.172 OFFCURVE",
"129.529 470.112 OFFCURVE",
"149.538 433.174 CURVE",
"177.348 392.723 LINE",
"118.348 352.207 OFFCURVE",
"60 293.675 OFFCURVE",
"60 183 CURVE",
"60 61.038 OFFCURVE",
"144.695 -27 OFFCURVE",
"279 -27 CURVE",
"346.974 -27 OFFCURVE",
"405.1 -5.516 OFFCURVE",
"457.203 35.784 CURVE",
"502.222 -20 LINE",
"619 -20 LINE"
);
}
);
width = 679;
}
);
unicode = 0026;
},
{
glyphname = paragraph;
lastChange = "2017-02-21 06:29:50 +0000";
layers = (
{
layerId = "7EBE3D46-E53E-419E-A3EC-596DA2EA1E0D";
name = Regular;
paths = (
{
closed = 1;
nodes = (
"141.134 298.974 OFFCURVE",
"80 386.607 OFFCURVE",
"80 489 CURVE",
"80 593.413 OFFCURVE",
"157.486 679 OFFCURVE",
"343 679 CURVE",
"511 679 LINE",
"511 21 LINE",
"439 21 LINE",
"439 647 LINE",
"335 647 LINE",
"335 296.074 LINE"
);
}
);
width = 591;
}
);
unicode = 00B6;
},
{
glyphname = section;
lastChange = "2017-02-21 06:29:50 +0000";
layers = (
{
layerId = "7EBE3D46-E53E-419E-A3EC-596DA2EA1E0D";
name = Regular;
paths = (
{
closed = 1;
nodes = (
"517.095 90.152 OFFCURVE",
"548 152.578 OFFCURVE",
"548 212 CURVE",
"548 415.69 OFFCURVE",
"235 475.35 OFFCURVE",
"235 549 CURVE",
"235 562.113 OFFCURVE",
"235.719 563.14 OFFCURVE",
"258.547 578.359 CURVE",
"273.992 589.295 OFFCURVE",
"304.076 599 OFFCURVE",
"351 599 CURVE",
"396.854 599 OFFCURVE",
"437.863 593.05 OFFCURVE",
"488 579.319 CURVE",
"488 712.96 LINE",
"443.556 722.334 OFFCURVE",
"397.694 728 OFFCURVE",
"353 728 CURVE",
"167.562 728 OFFCURVE",
"116 620.885 OFFCURVE",
"116 540 CURVE",
"116 506.11 OFFCURVE",
"128.533 477.065 OFFCURVE",
"142.542 457.382 CURVE",
"89.352 417.077 OFFCURVE",
"60 351.226 OFFCURVE",
"60 295 CURVE",
"60 92.391 OFFCURVE",
"376 29.751 OFFCURVE",
"376 -38 CURVE",
"376 -75.474 OFFCURVE",
"338.749 -94 OFFCURVE",
"249 -94 CURVE",
"183.038 -94 OFFCURVE",
"135.933 -83.501 OFFCURVE",
"78 -64.795 CURVE",
"78 -204.643 LINE",
"135.372 -218.303 OFFCURVE",
"173.365 -226 OFFCURVE",
"253 -226 CURVE",
"358.15 -226 OFFCURVE",
"494 -169.935 OFFCURVE",
"494 -32 CURVE",
"494 -0.904 OFFCURVE",
"481.191 29.2 OFFCURVE",
"466.027 50.107 CURVE"
);
},
{
closed = 1;
nodes = (
"279.791 184.331 OFFCURVE",
"174 233.153 OFFCURVE",
"174 303 CURVE",
"174 325.181 OFFCURVE",
"191.232 360.484 OFFCURVE",
"230.928 381.746 CURVE",
"324.62 320.677 OFFCURVE",
"435 274.381 OFFCURVE",
"435 204 CURVE",
"435 182.893 OFFCURVE",
"416.16 145.724 OFFCURVE",
"376.029 123.26 CURVE"
);
}
);
width = 608;
}
);
unicode = 00A7;
},
{
glyphname = degree;
lastChange = "2017-02-21 06:29:50 +0000";
layers = (
{
layerId = "7EBE3D46-E53E-419E-A3EC-596DA2EA1E0D";
name = Regular;
paths = (
{
closed = 1;
nodes = (
"294.213 407 OFFCURVE",
"367 479.787 OFFCURVE",
"367 571 CURVE",
"367 661.213 OFFCURVE",
"294.213 734 OFFCURVE",
"214 734 CURVE",
"132.787 734 OFFCURVE",
"60 661.213 OFFCURVE",
"60 571 CURVE",
"60 479.787 OFFCURVE",
"132.787 407 OFFCURVE",
"214 407 CURVE"
);
},
{
closed = 1;
nodes = (
"174.371 513 OFFCURVE",
"147 541.139 OFFCURVE",
"147 572 CURVE",
"147 600.854 OFFCURVE",
"174.371 629 OFFCURVE",
"215 629 CURVE",
"254.696 629 OFFCURVE",
"283 600.665 OFFCURVE",
"283 572 CURVE",
"283 541.328 OFFCURVE",
"254.696 513 OFFCURVE",
"215 513 CURVE"
);
}
);
width = 427;
}
);
unicode = 00B0;
},
{
glyphname = cedilla;
lastChange = "2017-02-21 06:29:50 +0000";
layers = (
{
layerId = "7EBE3D46-E53E-419E-A3EC-596DA2EA1E0D";
name = Regular;
paths = (
{
closed = 1;
nodes = (
"218.523 -91.687 LINE",
"223.712 -96.301 OFFCURVE",
"294 -85.145 OFFCURVE",
"294 -110 CURVE",
"294 -94.303 OFFCURVE",
"281.534 -66.375 OFFCURVE",
"245.359 -18.38 CURVE",
"197.491 -229.563 LINE",
"299.19 -255.245 OFFCURVE",
"397 -247.825 OFFCURVE",
"397 -117 CURVE",
"397 -30.691 OFFCURVE",
"349.653 -14.508 OFFCURVE",
"323.905 -12.078 CURVE",
"334.318 36.864 LINE",
"237.744 25.118 LINE"
);
}
);
width = 600;
}
);
unicode = 00B8;
},
{
glyphname = ogonek;
lastChange = "2017-02-21 06:29:50 +0000";
layers = (
{
layerId = "7EBE3D46-E53E-419E-A3EC-596DA2EA1E0D";
name = Regular;
paths = (
{
closed = 1;
nodes = (
"382.937 -129.233 LINE",
"372.17 -107.069 LINE",
"360.999 -108 OFFCURVE",
"346 -108 OFFCURVE",
"337 -108 CURVE",
"303.682 -108 OFFCURVE",
"297 -100.455 OFFCURVE",
"297 -90 CURVE",
"297 -67.341 OFFCURVE",
"307.445 -53.123 OFFCURVE",
"345 -41.737 CURVE",
"345 20 LINE",
"243.692 20 LINE",
"172.394 -23.127 OFFCURVE",
"171 -80.805 OFFCURVE",
"171 -115 CURVE",
"171 -176.581 OFFCURVE",
"228.547 -240 OFFCURVE",
"305 -240 CURVE",
"324.004 -240 OFFCURVE",
"351.778 -238.749 OFFCURVE",
"371.118 -234.429 CURVE"
);
}
);
width = 600;
}
);
unicode = 02DB;
},
{
glyphname = ring;
lastChange = "2017-02-21 06:29:50 +0000";
layers = (
{
layerId = "7EBE3D46-E53E-419E-A3EC-596DA2EA1E0D";
name = Regular;
paths = (
{
closed = 1;
nodes = (
"378.025 510 OFFCURVE",
"443 574.975 OFFCURVE",
"443 655.5 CURVE",
"443 736.025 OFFCURVE",
"378.025 801 OFFCURVE",
"307.5 801 CURVE",
"236.975 801 OFFCURVE",
"172 736.025 OFFCURVE",
"172 655.5 CURVE",
"172 574.975 OFFCURVE",
"236.975 510 OFFCURVE",
"307.5 510 CURVE"
);
},
{
closed = 1;
nodes = (
"281.343 618 OFFCURVE",
"263 636.403 OFFCURVE",
"263 653 CURVE",
"263 670.34 OFFCURVE",
"281.25 688 OFFCURVE",
"308 688 CURVE",
"334.75 688 OFFCURVE",
"353 670.34 OFFCURVE",
"353 653 CURVE",
"353 636.403 OFFCURVE",
"334.657 618 OFFCURVE",
"308 618 CURVE"
);
}
);
width = 600;
}
);
unicode = 02DA;
},
{
glyphname = _one.001;
lastChange = "2017-02-21 06:29:50 +0000";
layers = (
{
components = (
{
name = _I_small;
transform = "{1, 0, 0, 1, 117, 3}";
},
{
name = _I_small;
transform = "{1, 0, 0, 1, 117, 168}";
},
{
name = _I_small;
transform = "{1, 0, 0, 1, 117, 331}";
},
{
name = _I_small;
transform = "{1, 0, 0, 1, 117, 477}";
},
{
name = "_dash-small";
transform = "{1, 0, 0, 1, -1, -219}";
},
{
name = "_dash-small";
transform = "{1, 0, 0, 1, -84, -219}";
}
);
layerId = "7EBE3D46-E53E-419E-A3EC-596DA2EA1E0D";
name = Regular;
paths = (
{
closed = 1;
nodes = (
"38 556.866 LINE",
"260 604.124 LINE",
"260 720 LINE",
"209.965 720 LINE",
"38 677.54 LINE"
);
}
);
width = 600;
}
);
},
{
glyphname = newGlyph;
lastChange = "2017-02-21 06:29:50 +0000";
layers = (
{
layerId = "7EBE3D46-E53E-419E-A3EC-596DA2EA1E0D";
name = Regular;
paths = (
{
closed = 1;
nodes = (
"453.418 163 OFFCURVE",
"504 234.239 OFFCURVE",
"504 317.5 CURVE",
"504 400.761 OFFCURVE",
"453.418 472 OFFCURVE",
"398.5 472 CURVE",
"343.582 472 OFFCURVE",
"293 400.761 OFFCURVE",
"293 317.5 CURVE",
"293 234.239 OFFCURVE",
"343.582 163 OFFCURVE",
"398.5 163 CURVE"
);
}
);
width = 600;
}
);
},
{
glyphname = _slash;
lastChange = "2020-03-07 07:44:02 +0000";
layers = (
{
layerId = "7EBE3D46-E53E-419E-A3EC-596DA2EA1E0D";
name = Regular;
paths = (
{
closed = 1;
nodes = (
"296 689 LINE",
"14 -19 LINE",
"138 -19 LINE",
"323 467 LINE",
"344 467 LINE",
"332 689 LINE"
);
},
{
closed = 1;
nodes = (
"332 652 OFFCURVE",
"343 663 OFFCURVE",
"343 677 CURVE SMOOTH",
"343 690 OFFCURVE",
"332 702 OFFCURVE",
"318 702 CURVE SMOOTH",
"304 702 OFFCURVE",
"293 690 OFFCURVE",
"293 677 CURVE SMOOTH",
"293 663 OFFCURVE",
"304 652 OFFCURVE",
"318 652 CURVE SMOOTH"
);
}
);
width = 600;
}
);
},
{
glyphname = _curve_B;
lastChange = "2019-01-09 12:58:04 +0000";
layers = (
{
layerId = "7EBE3D46-E53E-419E-A3EC-596DA2EA1E0D";
name = Regular;
paths = (
{
closed = 1;
nodes = (
"128 717 OFFCURVE",
"52 714 OFFCURVE",
"22 711.462 CURVE",
"22 576.318 LINE",
"43.84 593.852 OFFCURVE",
"139 596 OFFCURVE",
"227 594 CURVE",
"307 591 OFFCURVE",
"338 546 OFFCURVE",
"338 502 CURVE",
"338 438 OFFCURVE",
"301 415 OFFCURVE",
"201 415 CURVE",
"76 415 LINE",
"54 314 LINE",
"247 314 LINE",
"388 314 OFFCURVE",
"462 401 OFFCURVE",
"462 508 CURVE",
"462 644 OFFCURVE",
"372 714 OFFCURVE",
"226 716 CURVE"
);
}
);
width = 469;
}
);
},
{
glyphname = _curve_b;
lastChange = "2020-02-20 16:05:10 +0000";
layers = (
{
layerId = "7EBE3D46-E53E-419E-A3EC-596DA2EA1E0D";
name = Regular;
paths = (
{
closed = 1;
nodes = (
"144 511 OFFCURVE",
"120 367 OFFCURVE",
"122 314 CURVE",
"141 259 LINE",
"141 344 OFFCURVE",
"207 393 OFFCURVE",
"266 393 CURVE",
"333 393 OFFCURVE",
"338 337 OFFCURVE",
"337 251 CURVE SMOOTH",
"337 163 OFFCURVE",
"302 106 OFFCURVE",
"238 105 CURVE",
"172 104 OFFCURVE",
"144 123 OFFCURVE",
"141 173 CURVE",
"114 148 LINE",
"112 82 OFFCURVE",
"137 -11 OFFCURVE",
"251 -11 CURVE",
"380 -11 OFFCURVE",
"449 100 OFFCURVE",
"449 232 CURVE",
"450 266 LINE",
"448 405 OFFCURVE",
"390 511 OFFCURVE",
"260 511 CURVE"
);
}
);
width = 493;
}
);
},
{
glyphname = _C_curve;
lastChange = "2020-03-07 07:31:00 +0000";
layers = (
{
layerId = "7EBE3D46-E53E-419E-A3EC-596DA2EA1E0D";
name = Regular;
paths = (
{
closed = 1;
nodes = (
"446 640 LINE",
"405 666 OFFCURVE",
"347 691 OFFCURVE",
"273 689 CURVE SMOOTH",
"125 686 OFFCURVE",
"1 589 OFFCURVE",
"1 311 CURVE SMOOTH",
"1 59 OFFCURVE",
"115 111 OFFCURVE",
"115 342 CURVE SMOOTH",
"115 498 OFFCURVE",
"189 566 OFFCURVE",
"276 565 CURVE SMOOTH",
"335 564 OFFCURVE",
"382 554 OFFCURVE",
"421 541 CURVE"
);
}
);
width = 506;
}
);
},
{
glyphname = _I_small;
lastChange = "2017-02-21 06:29:50 +0000";
layers = (
{
layerId = "7EBE3D46-E53E-419E-A3EC-596DA2EA1E0D";
name = Regular;
paths = (
{
closed = 1;
nodes = (
"30 -19 LINE",
"143 -19 LINE",
"143 188 LINE",
"30 188 LINE"
);
}
);
width = 469;
}
);
},
{
glyphname = _curve_generic;
lastChange = "2017-02-21 06:29:50 +0000";
layers = (
{
layerId = "7EBE3D46-E53E-419E-A3EC-596DA2EA1E0D";
name = Regular;
paths = (
{
closed = 1;
nodes = (
"347 406.79 OFFCURVE",
"460 384.949 OFFCURVE",
"460 499 CURVE",
"460 619.435 OFFCURVE",
"392.446 723.018 OFFCURVE",
"251.928 721.999 CURVE",
"88.807 720.905 LINE",
"111.196 600 LINE",
"233 600 LINE",
"316.89 600 OFFCURVE",
"347 559.74 OFFCURVE",
"347 498 CURVE"
);
}
);
width = 600;
}
);
},
{
glyphname = _EF_horizontal;
lastChange = "2020-01-25 07:13:17 +0000";
layers = (
{
layerId = "7EBE3D46-E53E-419E-A3EC-596DA2EA1E0D";
name = Regular;
paths = (
{
closed = 1;
nodes = (
"124 302 LINE",
"346 302 LINE",
"346 413 LINE",
"124 413 LINE"
);
}
);
width = 600;
}
);
},
{
glyphname = "_dash-small";
lastChange = "2018-12-26 09:43:30 +0000";
layers = (
{
layerId = "7EBE3D46-E53E-419E-A3EC-596DA2EA1E0D";
name = Regular;
paths = (
{
closed = 1;
nodes = (
"160 222 LINE",
"342 222 LINE",
"342 343 LINE",
"160 343 LINE"
);
}
);
width = 600;
}
);
},
{
glyphname = _dot;
lastChange = "2017-02-23 13:03:33 +0000";
layers = (
{
layerId = "7EBE3D46-E53E-419E-A3EC-596DA2EA1E0D";
name = Regular;
paths = (
{
closed = 1;
nodes = (
"172.953 579 OFFCURVE",
"217 614 OFFCURVE",
"217 669 CURVE",
"217 725 OFFCURVE",
"173.017 761 OFFCURVE",
"131 761 CURVE",
"87.983 761 OFFCURVE",
"44 725 OFFCURVE",
"44 669 CURVE",
"44 614 OFFCURVE",
"88.047 579 OFFCURVE",
"131 579 CURVE"
);
}
);
width = 260;
}
);
},
{
glyphname = _hmn;
lastChange = "2020-02-21 18:32:39 +0000";
layers = (
{
components = (
{
name = _I_small;
transform = "{1, 0, 0, 1, 311, 77}";
},
{
name = _I_small;
transform = "{1, 0, 0, 1, 311, 19}";
}
);
layerId = "7EBE3D46-E53E-419E-A3EC-596DA2EA1E0D";
name = Regular;
paths = (
{
closed = 1;
nodes = (
"342 185 OFFCURVE",
"452 64 OFFCURVE",
"454 203 CURVE",
"454 277 LINE",
"454 429 OFFCURVE",
"419 510 OFFCURVE",
"285 510 CURVE",
"205 510 OFFCURVE",
"157 456 OFFCURVE",
"133 391 CURVE",
"149 223 LINE",
"149 315 OFFCURVE",
"185 388 OFFCURVE",
"266 388 CURVE",
"323 387 OFFCURVE",
"341 349 OFFCURVE",
"341 261 CURVE"
);
}
);
width = 600;
}
);
},
{
glyphname = _w_slash;
lastChange = "2017-03-03 07:34:52 +0000";
layers = (
{
layerId = "7EBE3D46-E53E-419E-A3EC-596DA2EA1E0D";
name = Regular;
paths = (
{
closed = 1;
nodes = (
"301 287 LINE",
"268 287 LINE",
"135 699 LINE",
"14 699 LINE",
"247 -20 LINE",
"261 -20 LINE"
);
}
);
width = 600;
}
);
},
{
glyphname = _w_slash_2;
lastChange = "2017-03-03 07:36:08 +0000";
layers = (
{
layerId = "7EBE3D46-E53E-419E-A3EC-596DA2EA1E0D";
name = Regular;
paths = (
{
closed = 1;
nodes = (
"244 -19 LINE",
"382 404 LINE",
"392 403 LINE",
"384 720 LINE",
"366 720 LINE",
"186 168 LINE",
"237 -19 LINE"
);
}
);
width = 600;
}
);
},
{
glyphname = _X;
lastChange = "2019-01-08 16:15:02 +0000";
layers = (
{
layerId = "7EBE3D46-E53E-419E-A3EC-596DA2EA1E0D";
name = Regular;
paths = (
{
closed = 1;
nodes = (
"327 279 LINE",
"618 718 LINE",
"474 718 LINE",
"283 419 LINE",
"283 279 LINE"
);
}
);
width = 600;
}
);
},
{
glyphname = _curve_lower;
lastChange = "2020-01-20 22:17:52 +0000";
layers = (
{
layerId = "7EBE3D46-E53E-419E-A3EC-596DA2EA1E0D";
name = Regular;
paths = (
{
closed = 1;
nodes = (
"403 153 LINE",
"363 139 OFFCURVE",
"333.924 131.255 OFFCURVE",
"277 131 CURVE",
"241 131 OFFCURVE",
"206 162 OFFCURVE",
"206 214 CURVE SMOOTH",
"206 368 LINE",
"93 368 LINE",
"93 169 LINE SMOOTH",
"93 55.352 OFFCURVE",
"167 -10 OFFCURVE",
"264 -10 CURVE SMOOTH",
"318 -10 OFFCURVE",
"381 22 OFFCURVE",
"418 63 CURVE"
);
}
);
width = 476;
}
);
},
{
glyphname = _curve_lower_big;
lastChange = "2020-01-16 21:38:51 +0000";
layers = (
{
layerId = "7EBE3D46-E53E-419E-A3EC-596DA2EA1E0D";
name = Regular;
paths = (
{
closed = 1;
nodes = (
"-205 131 LINE",
"-247 112 OFFCURVE",
"-265 108 OFFCURVE",
"-330 109 CURVE SMOOTH",
"-383 109 OFFCURVE",
"-439 150 OFFCURVE",
"-439 231 CURVE SMOOTH",
"-439 251 LINE SMOOTH",
"-439 359 OFFCURVE",
"-553 345 OFFCURVE",
"-553 261 CURVE SMOOTH",
"-553 222 LINE SMOOTH",
"-553 70.727 OFFCURVE",
"-453.954 -26.071 OFFCURVE",
"-341.619 -22.064 CURVE",
"-287.875 -23.004 OFFCURVE",
"-227 -9 OFFCURVE",
"-190 31 CURVE"
);
}
);
width = 526;
}
);
},
{
glyphname = _o_curve;
lastChange = "2020-02-20 00:41:15 +0000";
layers = (
{
layerId = "7EBE3D46-E53E-419E-A3EC-596DA2EA1E0D";
name = Regular;
paths = (
{
closed = 1;
nodes = (
"257 508 LINE",
"124 508 OFFCURVE",
"37 405 OFFCURVE",
"35 247 CURVE",
"147 247 LINE",
"147 328 OFFCURVE",
"178 386 OFFCURVE",
"249 386 CURVE",
"251 386 OFFCURVE",
"251 386 OFFCURVE",
"253 386 CURVE"
);
}
);
width = 900;
}
);
},
{
glyphname = _M;
lastChange = "2020-03-07 07:35:43 +0000";
layers = (
{
layerId = "7EBE3D46-E53E-419E-A3EC-596DA2EA1E0D";
name = Regular;
paths = (
{
closed = 1;
nodes = (
"613 598 LINE",
"612 707 LINE",
"612 728 LINE",
"568 744 LINE",
"293 421 LINE",
"302 273 LINE",
"326 270 LINE"
);
},
{
closed = 1;
nodes = (
"601 703 OFFCURVE",
"612 714 OFFCURVE",
"612 728 CURVE SMOOTH",
"612 741 OFFCURVE",
"601 753 OFFCURVE",
"587 753 CURVE SMOOTH",
"573 753 OFFCURVE",
"562 741 OFFCURVE",
"562 728 CURVE SMOOTH",
"562 714 OFFCURVE",
"573 703 OFFCURVE",
"587 703 CURVE SMOOTH"
);
},
{
closed = 1;
nodes = (
"322 263 OFFCURVE",
"333 274 OFFCURVE",
"333 288 CURVE SMOOTH",
"333 301 OFFCURVE",
"322 313 OFFCURVE",
"308 313 CURVE SMOOTH",
"294 313 OFFCURVE",
"283 301 OFFCURVE",
"283 288 CURVE SMOOTH",
"283 274 OFFCURVE",
"294 263 OFFCURVE",
"308 263 CURVE SMOOTH"
);
}
);
width = 642;
}
);
},
{
glyphname = _O;
lastChange = "2020-03-07 07:48:18 +0000";
layers = (
{
layerId = "7EBE3D46-E53E-419E-A3EC-596DA2EA1E0D";
name = Regular;
paths = (
{
closed = 1;
nodes = (
"302 727 LINE",
"284 727 LINE",
"120 727 OFFCURVE",
"10 592 OFFCURVE",
"10 361 CURVE",
"10 360 OFFCURVE",
"123 362 OFFCURVE",
"123 363 CURVE",
"123 536 OFFCURVE",
"192 594 OFFCURVE",
"295 594 CURVE",
"301.565 594 LINE"
);
}
);
width = 900;
}
);
},
{
glyphname = _x;
lastChange = "2017-02-22 17:52:04 +0000";
layers = (
{
layerId = "7EBE3D46-E53E-419E-A3EC-596DA2EA1E0D";
name = Regular;
paths = (
{
closed = 1;
nodes = (
"348 193.284 LINE",
"480 0 LINE",
"626 0 LINE",
"392.191 331 LINE",
"368 281 LINE"
);
}
);
width = 900;
}
);
},
{
glyphname = _w_small_slash;
lastChange = "2020-01-20 20:10:33 +0000";
layers = (
{
layerId = "7EBE3D46-E53E-419E-A3EC-596DA2EA1E0D";
name = Regular;
paths = (
{
closed = 1;
nodes = (
"255 208 LINE",
"249 208 LINE",
"143 500 LINE",
"24 500 LINE",
"214 10 LINE",
"243 0 LINE"
);
}
);
width = 900;
}
);
},
{
glyphname = _w_small_slash_2;
lastChange = "2020-01-20 20:11:23 +0000";
layers = (
{
layerId = "7EBE3D46-E53E-419E-A3EC-596DA2EA1E0D";
name = Regular;
paths = (
{
closed = 1;
nodes = (
"408 193 LINE",
"296 494 LINE",
"277 500 LINE",
"239 285 LINE",
"259 285 LINE",
"363 10 LINE",
"377 10 LINE"
);
}
);
width = 900;
}
);
},
{
glyphname = _y;
lastChange = "2020-02-20 00:46:33 +0000";
layers = (
{
background = {
paths = (
{
closed = 1;
nodes = (
"345 27 LINE",
"544 520 LINE",
"415 520 LINE",
"343 314 LINE",
"311 167 LINE",
"314 27 LINE"
);
},
{
closed = 1;
nodes = (
"354.927 236 OFFCURVE",
"365 253.461 OFFCURVE",
"365 275 CURVE SMOOTH",
"365 296.539 OFFCURVE",
"354.927 314 OFFCURVE",
"342.5 314 CURVE SMOOTH",
"330.073 314 OFFCURVE",
"320 296.539 OFFCURVE",
"320 275 CURVE SMOOTH",
"320 253.461 OFFCURVE",
"330.073 236 OFFCURVE",
"342.5 236 CURVE SMOOTH"
);
}
);
};
layerId = "7EBE3D46-E53E-419E-A3EC-596DA2EA1E0D";
name = Regular;
paths = (
{
closed = 1;
nodes = (
"345 27 LINE",
"554 520 LINE",
"425 520 LINE",
"292 167 LINE",
"314 27 LINE"
);
}
);
width = 900;
}
);
},
{
glyphname = _D;
lastChange = "2020-03-07 07:52:31 +0000";
layers = (
{
layerId = "7EBE3D46-E53E-419E-A3EC-596DA2EA1E0D";
name = Regular;
paths = (
{
closed = 1;
nodes = (
"480 178 OFFCURVE",
"593 204 OFFCURVE",
"593 379 CURVE",
"593 602 OFFCURVE",
"458 715 OFFCURVE",
"278 718 CURVE",
"207 719 OFFCURVE",
"120 716 OFFCURVE",
"72 711 CURVE",
"72 580 LINE",
"113 589 OFFCURVE",
"216 590 OFFCURVE",
"270 590 CURVE",
"406 590 OFFCURVE",
"480 504 OFFCURVE",
"480 379 CURVE"
);
}
);
width = 533;
}
);
},
{
glyphname = _qtail;
lastChange = "2017-02-21 06:29:50 +0000";
layers = (
{
anchors = (
{
name = _tailq;
position = "{467, 92}";
}
);
layerId = "7EBE3D46-E53E-419E-A3EC-596DA2EA1E0D";
name = Regular;
paths = (
{
closed = 1;
nodes = (
"310 195.839 LINE",
"466.917 -19 LINE",
"557 -19 LINE",
"557 32.877 LINE",
"354.226 323 LINE",
"310 323 LINE"
);
}
);
width = 616;
}
);
},
{
glyphname = _m_curve;
lastChange = "2018-12-31 12:40:48 +0000";
layers = (
{
layerId = "7EBE3D46-E53E-419E-A3EC-596DA2EA1E0D";
name = Regular;
paths = (
{
closed = 1;
nodes = (
"127 511 OFFCURVE",
"111 417 OFFCURVE",
"92 306 CURVE",
"124 256 LINE",
"124 344 OFFCURVE",
"152 389 OFFCURVE",
"206 389 CURVE",
"249 389 OFFCURVE",
"276 347 OFFCURVE",
"276 263 CURVE",
"276 0 LINE",
"389 0 LINE",
"389 273 LINE",
"387 416 OFFCURVE",
"342 511 OFFCURVE",
"226 511 CURVE"
);
}
);
width = 741;
}
);
},
{
glyphname = _R_slash;
lastChange = "2017-02-21 06:29:50 +0000";
layers = (
{
layerId = "7EBE3D46-E53E-419E-A3EC-596DA2EA1E0D";
name = Regular;
paths = (
{
closed = 1;
nodes = (
"183.664 395 LINE",
"376.323 -18 LINE",
"497.251 -18 LINE",
"305.699 395 LINE"
);
}
);
width = 533;
}
);
},
{
glyphname = _fraction_slash;
lastChange = "2017-02-21 06:29:50 +0000";
layers = (
{
layerId = "7EBE3D46-E53E-419E-A3EC-596DA2EA1E0D";
name = Regular;
paths = (
{
closed = 1;
nodes = (
"406.077 720 LINE",
"172 18.791 LINE",
"172 -19 LINE",
"247.046 -19 LINE",
"473 681.356 LINE",
"473 720 LINE"
);
}
);
width = 710;
}
);
},
{
glyphname = _backslash;
lastChange = "2017-02-21 06:29:50 +0000";
layers = (
{
layerId = "7EBE3D46-E53E-419E-A3EC-596DA2EA1E0D";
name = Regular;
paths = (
{
closed = 1;
nodes = (
"60 671.293 LINE",
"286.007 -19 LINE",
"385 -19 LINE",
"385 28.661 LINE",
"161.031 720 LINE",
"60 720 LINE"
);
}
);
width = 600;
}
);
},
{
glyphname = _exclamation;
lastChange = "2017-02-21 06:29:50 +0000";
layers = (
{
layerId = "7EBE3D46-E53E-419E-A3EC-596DA2EA1E0D";
name = Regular;
paths = (
{
closed = 1;
nodes = (
"74.84 218 LINE",
"186.161 218 LINE",
"207.896 719 LINE",
"53.104 719 LINE"
);
}
);
width = 600;
}
);
},
{
glyphname = _two_question;
lastChange = "2017-02-21 06:29:50 +0000";
layers = (
{
layerId = "7EBE3D46-E53E-419E-A3EC-596DA2EA1E0D";
name = Regular;
paths = (
{
closed = 1;
nodes = (
"221.721 262.217 LINE",
"223.519 235.769 LINE",
"223.519 235.777 OFFCURVE",
"267.652 198.133 OFFCURVE",
"300.159 174.733 CURVE",
"440.451 366.78 OFFCURVE",
"484 439.607 OFFCURVE",
"484 538 CURVE",
"484 654.937 OFFCURVE",
"406.315 736 OFFCURVE",
"260 736 CURVE",
"212.054 736 OFFCURVE",
"141.65 726.124 OFFCURVE",
"83.152 682.289 CURVE",
"108.067 557.716 LINE",
"146.67 578.248 OFFCURVE",
"197.758 602 OFFCURVE",
"259 602 CURVE",
"341.751 602 OFFCURVE",
"362 566.921 OFFCURVE",
"362 530 CURVE",
"362 472.362 OFFCURVE",
"342.819 437.336 OFFCURVE",
"242.789 293.414 CURVE"
);
}
);
width = 565;
}
);
},
{
glyphname = _quote;
lastChange = "2017-02-21 06:29:50 +0000";
layers = (
{
layerId = "7EBE3D46-E53E-419E-A3EC-596DA2EA1E0D";
name = Regular;
paths = (
{
closed = 1;
nodes = (
"120.666 -16.448 LINE",
"127.74 -18.145 OFFCURVE",
"112.137 -60.65 OFFCURVE",
"74.567 -132.445 CURVE",
"140.919 -146.562 LINE",
"143 -147 LINE",
"145.915 -147 OFFCURVE",
"243.203 -28.964 OFFCURVE",
"228.485 96.242 CURVE",
"117.317 19.456 LINE"
);
}
);
width = 600;
}
);
},
{
glyphname = _bracket;
lastChange = "2017-02-21 06:29:50 +0000";
layers = (
{
layerId = "7EBE3D46-E53E-419E-A3EC-596DA2EA1E0D";
name = Regular;
paths = (
{
closed = 1;
nodes = (
"496.569 -141.555 LINE",
"360.431 -14.567 OFFCURVE",
"296 120.72 OFFCURVE",
"296 270 CURVE",
"296 419.201 OFFCURVE",
"359.285 552.265 OFFCURVE",
"496.507 681.688 CURVE",
"402.676 749.682 LINE",
"235.427 593.468 OFFCURVE",
"170 426.624 OFFCURVE",
"170 264 CURVE",
"170 88.74 OFFCURVE",
"250.801 -73.559 OFFCURVE",
"401.726 -210.655 CURVE"
);
}
);
width = 600;
}
);
},
{
glyphname = _square_bracket;
lastChange = "2017-02-21 06:29:50 +0000";
layers = (
{
layerId = "7EBE3D46-E53E-419E-A3EC-596DA2EA1E0D";
name = Regular;
paths = (
{
closed = 1;
nodes = (
"300 721 LINE",
"93 721 LINE",
"93 -221 LINE",
"300 -221 LINE",
"300 -97 LINE",
"210 -97 LINE",
"210 596 LINE",
"300 596 LINE"
);
}
);
width = 600;
}
);
},
{
glyphname = _percent;
lastChange = "2017-02-21 06:29:50 +0000";
layers = (
{
layerId = "7EBE3D46-E53E-419E-A3EC-596DA2EA1E0D";
name = Regular;
paths = (
{
closed = 1;
nodes = (
"72.615 555 OFFCURVE",
"1 513.291 OFFCURVE",
"1 387 CURVE",
"1 258.017 OFFCURVE",
"74.73 220 OFFCURVE",
"143 220 CURVE",
"210.269 220 OFFCURVE",
"286 259.013 OFFCURVE",
"286 387 CURVE",
"286 513.448 OFFCURVE",
"212.357 555 OFFCURVE",
"143 555 CURVE"
);
},
{
closed = 1;
nodes = (
"174.239 445 OFFCURVE",
"180 440.794 OFFCURVE",
"180 387 CURVE",
"180 332.824 OFFCURVE",
"174.706 330 OFFCURVE",
"143 330 CURVE",
"111.897 330 OFFCURVE",
"106 334.691 OFFCURVE",
"106 387 CURVE",
"106 439.649 OFFCURVE",
"113.581 445 OFFCURVE",
"143 445 CURVE"
);
}
);
width = 600;
}
);
},
{
glyphname = _multiply;
lastChange = "2017-02-21 06:29:50 +0000";
layers = (
{
layerId = "7EBE3D46-E53E-419E-A3EC-596DA2EA1E0D";
name = Regular;
paths = (
{
closed = 1;
nodes = (
"433.661 279.448 LINE",
"198.363 530.068 LINE",
"114.135 458.066 LINE",
"353.86 199.646 LINE"
);
}
);
width = 561;
}
);
},
{
glyphname = _less_equal;
lastChange = "2017-02-21 06:29:50 +0000";
layers = (
{
layerId = "7EBE3D46-E53E-419E-A3EC-596DA2EA1E0D";
name = Regular;
paths = (
{
closed = 1;
nodes = (
"500 429.136 LINE",
"105.248 626 LINE",
"72 626 LINE",
"72 502.477 LINE",
"381.807 360.998 LINE",
"500 362.093 LINE"
);
}
);
width = 600;
}
);
},
{
glyphname = _f_integral;
lastChange = "2020-02-08 19:31:02 +0000";
layers = (
{
layerId = "7EBE3D46-E53E-419E-A3EC-596DA2EA1E0D";
name = Regular;
paths = (
{
closed = 1;
nodes = (
"356 721 OFFCURVE",
"315 738 OFFCURVE",
"273 738 CURVE",
"184 738 OFFCURVE",
"117 680.675 OFFCURVE",
"117 595 CURVE",
"117 346 LINE",
"230 346 LINE",
"230 533 LINE",
"230 593 OFFCURVE",
"262 612 OFFCURVE",
"297 613 CURVE",
"337 614 OFFCURVE",
"352 613 OFFCURVE",
"383 607 CURVE",
"396 692 LINE"
);
}
);
width = 390;
}
);
},
{
glyphname = _circum_part;
lastChange = "2017-02-21 06:29:50 +0000";
layers = (
{
layerId = "7EBE3D46-E53E-419E-A3EC-596DA2EA1E0D";
name = Regular;
paths = (
{
closed = 1;
nodes = (
"250.87 253.083 LINE",
"348.336 137 LINE",
"448 137 LINE",
"448 183.207 LINE",
"295.606 361 LINE",
"252.254 361 LINE"
);
}
);
width = 600;
}
);
},
{
glyphname = _circle;
lastChange = "2017-02-21 06:29:50 +0000";
layers = (
{
layerId = "7EBE3D46-E53E-419E-A3EC-596DA2EA1E0D";
name = Regular;
paths = (
{
closed = 1;
nodes = (
"433.197 36 OFFCURVE",
"584 185.741 OFFCURVE",
"584 372 CURVE",
"584 557.213 OFFCURVE",
"433.213 708 OFFCURVE",
"258 708 CURVE",
"81.77 708 OFFCURVE",
"-68 557.167 OFFCURVE",
"-68 372 CURVE",
"-68 185.787 OFFCURVE",
"81.787 36 OFFCURVE",
"258 36 CURVE"
);
},
{
closed = 1;
nodes = (
"118.453 133 OFFCURVE",
"14 246.682 OFFCURVE",
"14 375 CURVE",
"14 504.043 OFFCURVE",
"118.346 613 OFFCURVE",
"257 613 CURVE",
"395.675 613 OFFCURVE",
"501 503.984 OFFCURVE",
"501 375 CURVE",
"501 246.741 OFFCURVE",
"395.57 133 OFFCURVE",
"257 133 CURVE"
);
}
);
width = 515;
}
);
},
{
glyphname = _acute;
lastChange = "2017-02-21 06:29:50 +0000";
layers = (
{
layerId = "7EBE3D46-E53E-419E-A3EC-596DA2EA1E0D";
name = Regular;
paths = (
{
closed = 1;
nodes = (
"293.473 771.339 OFFCURVE",
"219.991 629.529 OFFCURVE",
"190.641 570 CURVE",
"291 570 LINE",
"295.488 570 OFFCURVE",
"410.219 762.692 OFFCURVE",
"386.013 786.905 CURVE",
"285.841 788.097 LINE"
);
}
);
width = 600;
}
);
},
{
glyphname = _breve;
lastChange = "2017-02-21 06:29:50 +0000";
layers = (
{
layerId = "7EBE3D46-E53E-419E-A3EC-596DA2EA1E0D";
name = Regular;
paths = (
{
closed = 1;
nodes = (
"90.05 760.999 LINE",
"90.05 761.222 OFFCURVE",
"66.353 566 OFFCURVE",
"289 566 CURVE",
"393.283 566 OFFCURVE",
"391.794 689 OFFCURVE",
"267 689 CURVE",
"224.121 689 OFFCURVE",
"199.836 730.061 OFFCURVE",
"208.879 779 CURVE",
"100 779 LINE"
);
}
);
width = 600;
}
);
},
{
glyphname = _i_dotless_full;
lastChange = "2020-01-20 19:26:29 +0000";
layers = (
{
components = (
{
name = _I_small;
transform = "{1, 0, 0, 1, 101, 143}";
},
{
name = _I_small;
transform = "{1, 0, 0, 1, 101, 272}";
},
{
name = _I_small;
transform = "{1, 0, 0, 1, 101, 312}";
},
{
name = _I_small;
transform = "{1, 0, 0, 1, 101, 20}";
}
);
hints = (
{
horizontal = 1;
place = "{420, 80}";
type = Stem;
}
);
layerId = "7EBE3D46-E53E-419E-A3EC-596DA2EA1E0D";
name = Regular;
paths = (
{
closed = 1;
nodes = (
"70 389 LINE",
"232 389 LINE",
"232 500 LINE",
"70 500 LINE"
);
}
);
width = 323;
}
);
},
{
glyphname = _slash_diacritics;
lastChange = "2017-02-21 06:29:50 +0000";
layers = (
{
layerId = "7EBE3D46-E53E-419E-A3EC-596DA2EA1E0D";
name = Regular;
paths = (
{
closed = 1;
nodes = (
"320.38 362.824 LINE",
"317.467 489.539 LINE",
"3.183 373.413 LINE",
"1.73 244.132 LINE"
);
}
);
width = 515;
}
);
},
{
glyphname = _cedilla_fragment;
lastChange = "2017-02-21 06:29:50 +0000";
layers = (
{
layerId = "7EBE3D46-E53E-419E-A3EC-596DA2EA1E0D";
name = Regular;
paths = (
{
closed = 1;
nodes = (
"287 296.999 LINE",
"324.517 273.221 OFFCURVE",
"363.33 251.951 OFFCURVE",
"421.182 253.003 CURVE",
"480.577 254.045 OFFCURVE",
"520.613 274.663 OFFCURVE",
"564.597 325.454 CURVE",
"535.841 447.325 LINE",
"498.376 412.337 OFFCURVE",
"458.097 391.105 OFFCURVE",
"414.744 389.993 CURVE",
"364.026 390 OFFCURVE",
"327.035 423.137 OFFCURVE",
"287 447.595 CURVE"
);
}
);
width = 600;
}
);
},
{
glyphname = _ve_cyr;
lastChange = "2019-01-10 16:15:38 +0000";
layers = (
{
layerId = "7EBE3D46-E53E-419E-A3EC-596DA2EA1E0D";
name = Regular;
paths = (
{
closed = 1;
nodes = (
"99.243 439.381 LINE",
"109 415 LINE",
"120 415 OFFCURVE",
"244 415 OFFCURVE",
"255 415 CURVE",
"419.923 417.062 OFFCURVE",
"480 458 OFFCURVE",
"480 559 CURVE",
"480 661 OFFCURVE",
"399 703 OFFCURVE",
"261 702 CURVE",
"98 701 LINE",
"120 580 LINE",
"282 580 LINE",
"338 580 OFFCURVE",
"356 575 OFFCURVE",
"356 548 CURVE",
"356 517 OFFCURVE",
"339 504 OFFCURVE",
"279 504 CURVE",
"113.749 504 LINE"
);
}
);
width = 556;
}
);
},
{
glyphname = _three;
lastChange = "2020-03-07 09:16:46 +0000";
layers = (
{
layerId = "7EBE3D46-E53E-419E-A3EC-596DA2EA1E0D";
name = Regular;
paths = (
{
closed = 1;
nodes = (
"294 324 OFFCURVE",
"479 338 OFFCURVE",
"479 522 CURVE",
"479 638.972 OFFCURVE",
"391.302 730 OFFCURVE",
"245 730 CURVE",
"197.054 730 OFFCURVE",
"127 720 OFFCURVE",
"78 676 CURVE",
"93 582 LINE",
"132 592 OFFCURVE",
"182.758 596 OFFCURVE",
"244 596 CURVE",
"329.271 596 OFFCURVE",
"357 551.877 OFFCURVE",
"357 514 CURVE",
"357 441 OFFCURVE",
"284 407 OFFCURVE",
"162 407 CURVE",
"162 309 LINE"
);
}
);
width = 539;
}
);
},
{
glyphname = _ze_cyr;
lastChange = "2017-02-21 06:29:50 +0000";
layers = (
{
layerId = "7EBE3D46-E53E-419E-A3EC-596DA2EA1E0D";
name = Regular;
paths = (
{
closed = 1;
nodes = (
"266.355 222.116 OFFCURVE",
"479 217.713 OFFCURVE",
"479 370 CURVE",
"479 504.127 OFFCURVE",
"392.131 537 OFFCURVE",
"285 537 CURVE",
"180.542 537 OFFCURVE",
"148.312 517.584 OFFCURVE",
"87.1 497.295 CURVE",
"113.329 373.439 LINE",
"151.575 397.046 OFFCURVE",
"201.295 403 OFFCURVE",
"267 403 CURVE",
"331.78 403 OFFCURVE",
"357 391.01 OFFCURVE",
"357 371 CURVE",
"357 343.051 OFFCURVE",
"297.455 305.693 OFFCURVE",
"162 325.37 CURVE",
"162 205.51 LINE"
);
}
);
width = 539;
}
);
},
{
glyphname = _D_cyr;
lastChange = "2020-01-25 07:15:55 +0000";
layers = (
{
layerId = "7EBE3D46-E53E-419E-A3EC-596DA2EA1E0D";
name = Regular;
paths = (
{
closed = 1;
nodes = (
"492 -1 LINE",
"550 -1 LINE",
"550 -145 LINE",
"662 -145 LINE",
"661 111 LINE",
"485 110 LINE"
);
}
);
width = 600;
}
);
},
{
glyphname = _k_cyr;
lastChange = "2017-02-21 06:29:50 +0000";
layers = (
{
layerId = "7EBE3D46-E53E-419E-A3EC-596DA2EA1E0D";
name = Regular;
paths = (
{
closed = 1;
nodes = (
"105.016 207.125 LINE",
"251.235 205.983 LINE",
"279.16 246.194 LINE",
"496.835 518 LINE",
"345.015 518 LINE",
"191.988 314.964 LINE",
"132.107 313.895 LINE"
);
}
);
width = 600;
}
);
},
{
glyphname = _d_curl;
lastChange = "2017-02-21 06:29:50 +0000";
layers = (
{
layerId = "7EBE3D46-E53E-419E-A3EC-596DA2EA1E0D";
name = Regular;
paths = (
{
closed = 1;
nodes = (
"261 530.675 LINE",
"163.678 536.899 OFFCURVE",
"128.798 452.794 OFFCURVE",
"84.758 363.066 CURVE",
"126.866 275.947 LINE",
"185.414 392.928 OFFCURVE",
"191.529 399.986 OFFCURVE",
"261 398.913 CURVE"
);
}
);
width = 494;
}
);
},
{
glyphname = _Z;
lastChange = "2020-03-07 07:45:52 +0000";
layers = (
{
layerId = "7EBE3D46-E53E-419E-A3EC-596DA2EA1E0D";
name = Regular;
paths = (
{
closed = 1;
nodes = (
"287 111 LINE",
"630 681 LINE",
"609 720 LINE",
"538 720 LINE",
"272 251 LINE",
"242 111 LINE"
);
},
{
closed = 1;
nodes = (
"623 670 OFFCURVE",
"634 681 OFFCURVE",
"634 695 CURVE SMOOTH",
"634 708 OFFCURVE",
"623 720 OFFCURVE",
"609 720 CURVE SMOOTH",
"595 720 OFFCURVE",
"584 708 OFFCURVE",
"584 695 CURVE SMOOTH",
"584 681 OFFCURVE",
"595 670 OFFCURVE",
"609 670 CURVE SMOOTH"
);
}
);
width = 661;
}
);
},
{
glyphname = _c;
lastChange = "2020-01-12 19:53:53 +0000";
layers = (
{
layerId = "7EBE3D46-E53E-419E-A3EC-596DA2EA1E0D";
name = Regular;
paths = (
{
closed = 1;
nodes = (
"330 547 OFFCURVE",
"360 527 OFFCURVE",
"404 502 CURVE",
"419 612 LINE",
"382 653 OFFCURVE",
"319 687 OFFCURVE",
"265 685 CURVE",
"266 544 LINE"
);
}
);
width = 506;
}
);
},
{
glyphname = _quotes;
lastChange = "2017-03-05 11:25:39 +0000";
layers = (
{
components = (
{
name = _dot;
transform = "{1, 0, 0, 1, 23, -608}";
}
);
layerId = "7EBE3D46-E53E-419E-A3EC-596DA2EA1E0D";
name = Regular;
paths = (
{
closed = 1;
nodes = (
"126 -28 OFFCURVE",
"133 -54 OFFCURVE",
"103.246 -93.373 CURVE",
"158.078 -110.127 LINE",
"161 -111 LINE",
"163.704 -111 OFFCURVE",
"252 -12 OFFCURVE",
"237 84 CURVE",
"96 -6 LINE"
);
}
);
width = 600;
}
);
},
{
glyphname = _yQ;
lastChange = "2017-02-21 06:29:50 +0000";
layers = (
{
layerId = "7EBE3D46-E53E-419E-A3EC-596DA2EA1E0D";
name = Regular;
paths = (
{
closed = 1;
nodes = (
"219.364 8 LINE",
"201.594 -41.207 LINE",
"180.945 -97.734 OFFCURVE",
"145.599 -103.466 OFFCURVE",
"101.375 -82.627 CURVE",
"114.674 -218.575 LINE",
"197.223 -234.556 OFFCURVE",
"258.018 -190.503 OFFCURVE",
"292.349 -100.1 CURVE",
"332.358 8 LINE"
);
}
);
width = 511;
}
);
},
{
glyphname = _m_cyr;
lastChange = "2017-02-21 06:29:50 +0000";
layers = (
{
layerId = "7EBE3D46-E53E-419E-A3EC-596DA2EA1E0D";
name = Regular;
paths = (
{
closed = 1;
nodes = (
"159.751 520 LINE",
"10 28.403 LINE",
"10 -19 LINE",
"123.882 -19 LINE",
"199.882 282 LINE",
"225.883 282 LINE",
"194.631 520 LINE"
);
}
);
width = 682;
}
);
},
{
glyphname = _m_cyr_2;
lastChange = "2020-03-07 09:22:03 +0000";
layers = (
{
layerId = "7EBE3D46-E53E-419E-A3EC-596DA2EA1E0D";
name = Regular;
paths = (
{
closed = 1;
nodes = (
"138.897 389.853 LINE",
"381 121 LINE",
"397 121 LINE",
"391 293 LINE",
"394 293 LINE",
"183.518 520 LINE",
"140.199 520 LINE"
);
}
);
width = 682;
}
);
},
{
glyphname = _ya_cyr;
lastChange = "2020-03-07 09:26:43 +0000";
layers = (
{
layerId = "7EBE3D46-E53E-419E-A3EC-596DA2EA1E0D";
name = Regular;
paths = (
{
closed = 1;
nodes = (
"169 360 OFFCURVE",
"124 377 OFFCURVE",
"122 431 CURVE",
"124 485 OFFCURVE",
"168.802 502.036 OFFCURVE",
"213 504 CURVE SMOOTH",
"259 506 OFFCURVE",
"338 498 OFFCURVE",
"380 493 CURVE",
"385 618 LINE",
"351 624 OFFCURVE",
"253 631 OFFCURVE",
"214 631 CURVE SMOOTH",
"101.342 631 OFFCURVE",
"17.854 566.283 OFFCURVE",
"10.525 454.254 CURVE",
"10.18 451.059 OFFCURVE",
"10 447.644 OFFCURVE",
"10 444 CURVE SMOOTH",
"10.018 441 LINE SMOOTH",
"10.006 440.003 OFFCURVE",
"10 439.004 OFFCURVE",
"10 438 CURVE",
"10.525 427.746 LINE SMOOTH",
"17.854 315.717 OFFCURVE",
"91 267 OFFCURVE",
"214 261 CURVE SMOOTH",
"253 259 OFFCURVE",
"351 268 OFFCURVE",
"385 274 CURVE",
"380 379 LINE",
"338 370 OFFCURVE",
"259 356 OFFCURVE",
"213 358 CURVE SMOOTH"
);
}
);
width = 499;
}
);
},
{
glyphname = _u_cyr;
lastChange = "2020-03-07 09:24:26 +0000";
layers = (
{
layerId = "7EBE3D46-E53E-419E-A3EC-596DA2EA1E0D";
name = Regular;
paths = (
{
closed = 1;
nodes = (
"10 282 OFFCURVE",
"96 211 OFFCURVE",
"214 211 CURVE",
"253 211 OFFCURVE",
"351 218 OFFCURVE",
"385 224 CURVE",
"380 339 LINE",
"338 334 OFFCURVE",
"259 336 OFFCURVE",
"213 338 CURVE",
"168 340 OFFCURVE",
"122 347 OFFCURVE",
"122 404 CURVE",
"122 443 OFFCURVE",
"10 495 OFFCURVE",
"10 404 CURVE"
);
}
);
width = 499;
}
);
},
{
glyphname = _curve_cursive;
lastChange = "2020-02-26 06:39:11 +0000";
layers = (
{
layerId = "7EBE3D46-E53E-419E-A3EC-596DA2EA1E0D";
name = Regular;
paths = (
{
closed = 1;
nodes = (
"50 255 CURVE",
"50 235 LINE",
"50 86 OFFCURVE",
"150 -9 OFFCURVE",
"266 -9 CURVE",
"338 -8 OFFCURVE",
"391 17 OFFCURVE",
"425 65 CURVE",
"404 137 LINE",
"362 121 OFFCURVE",
"325 117 OFFCURVE",
"276 117 CURVE",
"220 117 OFFCURVE",
"164 158 OFFCURVE",
"164 234 CURVE",
"164 349 OFFCURVE",
"50 364 OFFCURVE"
);
}
);
width = 537;
}
);
},
{
glyphname = _ending_cursive;
lastChange = "2017-02-21 06:29:50 +0000";
layers = (
{
layerId = "7EBE3D46-E53E-419E-A3EC-596DA2EA1E0D";
name = Regular;
paths = (
{
closed = 1;
nodes = (
"269.778 -25.78 LINE",
"346.663 -29.052 OFFCURVE",
"399.94 4.517 OFFCURVE",
"443.289 55.558 CURVE",
"383.162 161.114 LINE",
"350.024 122.47 OFFCURVE",
"313.435 100.467 OFFCURVE",
"271.226 104.466 CURVE"
);
}
);
width = 537;
}
);
},
{
glyphname = _z;
lastChange = "2020-01-25 07:12:13 +0000";
layers = (
{
layerId = "7EBE3D46-E53E-419E-A3EC-596DA2EA1E0D";
name = Regular;
paths = (
{
closed = 1;
nodes = (
"407 499 LINE",
"348 499 LINE",
"177 210 LINE",
"150 70 LINE",
"215 70 LINE",
"428 461 LINE"
);
},
{
closed = 1;
nodes = (
"420 449 OFFCURVE",
"431 460 OFFCURVE",
"431 474 CURVE SMOOTH",
"431 487 OFFCURVE",
"420 499 OFFCURVE",
"406 499 CURVE SMOOTH",
"392 499 OFFCURVE",
"381 487 OFFCURVE",
"381 474 CURVE SMOOTH",
"381 460 OFFCURVE",
"392 449 OFFCURVE",
"406 449 CURVE SMOOTH"
);
}
);
width = 481;
}
);
},
{
glyphname = _g_two_storey;
lastChange = "2017-02-21 06:29:50 +0000";
layers = (
{
layerId = "7EBE3D46-E53E-419E-A3EC-596DA2EA1E0D";
name = Regular;
paths = (
{
closed = 1;
nodes = (
"280.998 412.556 LINE",
"262.548 523 LINE",
"263.032 523 OFFCURVE",
"263.516 523 OFFCURVE",
"264 523 CURVE",
"122.177 523 OFFCURVE",
"52.201 434.966 OFFCURVE",
"50.002 329.417 CURVE",
"50 298.682 OFFCURVE",
"163 299.884 OFFCURVE",
"163 330 CURVE",
"163 362.566 OFFCURVE",
"190.505 393 OFFCURVE",
"265 393 CURVE",
"267 393 OFFCURVE",
"269 393 OFFCURVE",
"271 393 CURVE"
);
}
);
width = 538;
}
);
},
{
glyphname = _g_loop;
lastChange = "2017-02-21 06:29:50 +0000";
layers = (
{
layerId = "7EBE3D46-E53E-419E-A3EC-596DA2EA1E0D";
name = Regular;
paths = (
{
closed = 1;
nodes = (
"211.003 -74.506 LINE",
"229.503 -176 LINE",
"229.002 -176 OFFCURVE",
"228.501 -176 OFFCURVE",
"228 -176 CURVE",
"361.303 -176 OFFCURVE",
"419.704 -115.228 OFFCURVE",
"421.997 -15.46 CURVE",
"422 15.217 OFFCURVE",
"309 15.217 OFFCURVE",
"309 -15 CURVE",
"309 -37.808 OFFCURVE",
"291.79 -55 OFFCURVE",
"227 -55 CURVE",
"225 -55 OFFCURVE",
"223 -55 OFFCURVE",
"221 -55 CURVE"
);
}
);
width = 538;
}
);
},
{
glyphname = _N;
lastChange = "2020-03-07 07:47:36 +0000";
layers = (
{
layerId = "7EBE3D46-E53E-419E-A3EC-596DA2EA1E0D";
name = Regular;
paths = (
{
closed = 1;
nodes = (
"475 251 LINE",
"104 701 LINE",
"60 684 LINE",
"60 468.309 LINE",
"152 456 LINE",
"475 81 LINE"
);
},
{
closed = 1;
nodes = (
"99 660 OFFCURVE",
"110 671 OFFCURVE",
"110 685 CURVE SMOOTH",
"110 698 OFFCURVE",
"99 710 OFFCURVE",
"85 710 CURVE SMOOTH",
"71 710 OFFCURVE",
"60 698 OFFCURVE",
"60 685 CURVE SMOOTH",
"60 671 OFFCURVE",
"71 660 OFFCURVE",
"85 660 CURVE SMOOTH"
);
}
);
width = 618;
}
);
},
{
glyphname = _C_lowe;
lastChange = "2020-03-07 07:32:25 +0000";
layers = (
{
layerId = "7EBE3D46-E53E-419E-A3EC-596DA2EA1E0D";
name = Regular;
paths = (
{
closed = 1;
nodes = (
"30 298 CURVE",
"30 55 OFFCURVE",
"168 -25 OFFCURVE",
"296 -26 CURVE",
"378 -25 OFFCURVE",
"432 5 OFFCURVE",
"474 43 CURVE",
"454 136 LINE",
"414 117 OFFCURVE",
"364 107 OFFCURVE",
"296 107 CURVE",
"227 107 OFFCURVE",
"144 152 OFFCURVE",
"144 307 CURVE",
"144 466 OFFCURVE",
"30 458 OFFCURVE"
);
}
);
width = 492;
}
);
},
{
glyphname = _A;
lastChange = "2017-03-03 07:34:33 +0000";
layers = (
{
layerId = "7EBE3D46-E53E-419E-A3EC-596DA2EA1E0D";
name = Regular;
paths = (
{
closed = 1;
nodes = (
"306 729 LINE",
"284 729 LINE",
"11 0 LINE",
"134 0 LINE",
"296 454 LINE",
"446 0 LINE",
"570 0 LINE"
);
}
);
width = 590;
}
);
},
{
glyphname = _P;
lastChange = "2020-03-07 07:37:01 +0000";
layers = (
{
layerId = "7EBE3D46-E53E-419E-A3EC-596DA2EA1E0D";
name = Regular;
paths = (
{
closed = 1;
nodes = (
"490 619.142 OFFCURVE",
"390 710 OFFCURVE",
"251 710 CURVE",
"60 710 LINE",
"60 576 LINE",
"242 577 LINE",
"334 577 OFFCURVE",
"366 532 OFFCURVE",
"366 475 CURVE",
"365 418 OFFCURVE",
"333.49 362 OFFCURVE",
"242 362 CURVE",
"177.766 359.706 OFFCURVE",
"87.27 371.88 OFFCURVE",
"60 389.125 CURVE",
"60 275 LINE",
"100 268 OFFCURVE",
"176 259 OFFCURVE",
"251 260 CURVE",
"390 262 OFFCURVE",
"490 342.858 OFFCURVE",
"490 478 CURVE",
"490 479 OFFCURVE",
"490 480 OFFCURVE",
"490 481 CURVE",
"490 484 LINE"
);
}
);
width = 513;
}
);
},
{
glyphname = _x_;
lastChange = "2020-01-25 07:09:10 +0000";
layers = (
{
layerId = "7EBE3D46-E53E-419E-A3EC-596DA2EA1E0D";
name = Regular;
paths = (
{
closed = 1;
nodes = (
"294 179 LINE",
"471 498 LINE",
"337 498 LINE",
"250 319 LINE",
"250 179 LINE"
);
}
);
width = 483;
}
);
},
{
glyphname = em_;
lastChange = "2020-03-07 09:23:06 +0000";
layers = (
{
layerId = "7EBE3D46-E53E-419E-A3EC-596DA2EA1E0D";
name = Regular;
paths = (
{
closed = 1;
nodes = (
"613 598 LINE",
"612 707 LINE",
"612 728 LINE",
"568 744 LINE",
"351 546 LINE",
"360 398 LINE",
"384 395 LINE"
);
},
{
closed = 1;
nodes = (
"601 703 OFFCURVE",
"612 714 OFFCURVE",
"612 728 CURVE SMOOTH",
"612 741 OFFCURVE",
"601 753 OFFCURVE",
"587 753 CURVE SMOOTH",
"573 753 OFFCURVE",
"562 741 OFFCURVE",
"562 728 CURVE SMOOTH",
"562 714 OFFCURVE",
"573 703 OFFCURVE",
"587 703 CURVE SMOOTH"
);
},
{
closed = 1;
nodes = (
"380 388 OFFCURVE",
"391 399 OFFCURVE",
"391 413 CURVE SMOOTH",
"391 426 OFFCURVE",
"380 438 OFFCURVE",
"366 438 CURVE SMOOTH",
"352 438 OFFCURVE",
"341 426 OFFCURVE",
"341 413 CURVE SMOOTH",
"341 399 OFFCURVE",
"352 388 OFFCURVE",
"366 388 CURVE SMOOTH"
);
}
